<?xml version="1.0" standalone="no"?>
<!DOCTYPE svg PUBLIC "-//W3C//DTD SVG 1.1//EN" "http://www.w3.org/Graphics/SVG/1.1/DTD/svg11.dtd" >
<svg xmlns="http://www.w3.org/2000/svg" xmlns:xlink="http://www.w3.org/1999/xlink" version="1.1">
<metadata>
Created by FontForge 20201107 at Sun Sep 10 17:28:57 2023
 By 
(c) LY Corporation
</metadata>
<defs>
<font id="LINESeedSansTH-Regular" horiz-adv-x="0" >
  <font-face 
    font-family="LINE Seed Sans TH"
    font-weight="400"
    font-stretch="normal"
    units-per-em="1000"
    panose-1="2 11 3 3 2 2 3 2 2 4"
    ascent="750"
    descent="-250"
    x-height="505"
    cap-height="734"
    bbox="-597 -415 1294 1070"
    underline-thickness="76"
    underline-position="-110"
    unicode-range="U+000D-1F6CD"
  />
<missing-glyph horiz-adv-x="500" 
d="M50 0v750h400v-750h-400zM100 50h300v650h-300v-650z" />
    <glyph glyph-name="uni0E240E45" unicode="&#xe24;&#xe45;" horiz-adv-x="962" 
d="M830.5 513.5q50.5 -52.5 50.5 -140.5v-578q0 -10 -11 -10h-61q-10 0 -10 10v554q0 65 -33.5 103.5t-89.5 38.5q-62 0 -100.5 -41.5t-38.5 -108.5v-546q0 -10 -10 -10h-61q-11 0 -11 10v564q0 60 -34 92t-98 32h-160v-308q0 -53 20.5 -80.5t60.5 -27.5q24 0 45 12q5 3 7 3
q4 0 7 -6l21 -45q2 -4 2 -7t-4 -7q-31 -24 -87 -24q-74 0 -114 45t-40 128v379q0 10 10 10h239q69 0 116.5 -24.5t70.5 -71.5q25 51 71 79t107 28q85 0 135.5 -52.5z" />
    <glyph glyph-name="uni0E260E45" unicode="&#xe26;&#xe45;" horiz-adv-x="975" 
d="M843.5 513.5q50.5 -52.5 50.5 -140.5v-578q0 -10 -10 -10h-61q-11 0 -11 10v554q0 65 -33 103.5t-90 38.5q-61 0 -99.5 -42t-38.5 -108v-546q0 -10 -11 -10h-61q-10 0 -10 10v564q0 60 -34.5 92t-98.5 32h-149v-341q0 -70 -33.5 -108.5t-94.5 -38.5q-22 0 -33 2
q-9 2 -9 11v54q0 9 10 9q6 -1 17 -1q30 0 45.5 20.5t15.5 59.5v395q0 10 10 10h228q70 0 117 -24.5t70 -71.5q26 52 71.5 79.5t106.5 27.5q85 0 135.5 -52.5z" />
    <glyph glyph-name="fongman_fannuthai" unicode="&#xe4f;&#x22;" horiz-adv-x="611" 
d="M217 586q-9 0 -9 9l-7 188q0 9 10 9h47q9 0 9 -9l-7 -188q0 -9 -9 -9h-34zM360 586q-9 0 -9 9l-7 188q0 9 9 9h48q10 0 8 -9l-6 -188q0 -9 -9 -9h-34zM171 60q-60 32 -94 88.5t-34 127.5q0 72 34 128.5t94 88.5t135 32t135 -32t93.5 -88.5t33.5 -128.5
q0 -71 -33.5 -127.5t-93.5 -88.5t-135 -32t-135 32zM413.5 102q47.5 26 74 71.5t26.5 102.5t-26.5 102.5t-74 71.5t-107.5 26t-107.5 -26t-74.5 -71.5t-27 -102.5t27 -102.5t74.5 -71.5t107.5 -26t107.5 26zM220.5 190q-33.5 34 -33.5 86t33.5 86t85.5 34q51 0 84.5 -34
t33.5 -86t-33.5 -86t-84.5 -34q-52 0 -85.5 34zM356 224.5q20 20.5 20 51.5t-20 52t-50 21q-31 0 -50.5 -20.5t-19.5 -52.5t19.5 -52t50.5 -20q30 0 50 20.5z" />
    <glyph glyph-name="f_f" unicode="ff" horiz-adv-x="695" 
d="M122 0q-11 0 -11 11v422h-84q-11 0 -11 10v52q0 10 11 10h84v66q0 89 45.5 137.5t121.5 48.5q70 0 124 -46q6 -6 1 -15l-20 -41q-2 -4 -6 -5t-9 2q-23 17 -42.5 24t-42.5 7q-47 0 -69.5 -27.5t-22.5 -85.5v-65h242v66q0 89 43 137.5t114 48.5q103 0 149 -99q1 -1 1 -4
q0 -7 -7 -10l-47 -19l-4 -1q-6 0 -10 7q-13 27 -32 39.5t-45 12.5q-82 0 -82 -113v-65h143q11 0 11 -10v-52q0 -10 -11 -10h-143v-422q0 -11 -10 -11h-59q-11 0 -11 11v422h-242v-422q0 -11 -10 -11h-59z" />
    <glyph glyph-name="f_f_i" unicode="ffi" horiz-adv-x="914" 
d="M122 0q-11 0 -11 11v422h-84q-11 0 -11 10v52q0 10 11 10h84v66q0 89 46 137.5t121 48.5q70 0 124 -46q6 -6 1 -15l-20 -41q-2 -4 -6 -5t-9 2q-23 17 -42.5 24t-42.5 7q-47 0 -69.5 -27.5t-22.5 -85.5v-65h242v66q0 89 43.5 137.5t118.5 48.5q71 0 118 -46q7 -8 0 -15
l-26 -39q-3 -4 -7 -5t-8 3q-17 15 -33.5 21.5t-38.5 6.5q-87 0 -87 -113v-65h312q10 0 10 -10v-484q0 -11 -10 -11h-59q-11 0 -11 11v422h-242v-422q0 -11 -10 -11h-59q-11 0 -11 11v422h-242v-422q0 -11 -10 -11h-59zM757 625.5q-15 14.5 -15 37.5t15 37.5t38 14.5
t38.5 -14.5t15.5 -37.5t-15.5 -37.5t-38.5 -14.5t-38 14.5z" />
    <glyph glyph-name="f_f_l" unicode="ffl" horiz-adv-x="913" 
d="M122 0q-11 0 -11 11v422h-84q-11 0 -11 10v52q0 10 11 10h84v66q0 89 45.5 137.5t121.5 48.5q70 0 124 -46q6 -6 1 -15l-20 -41q-2 -4 -6 -5t-9 2q-23 17 -42.5 24t-42.5 7q-47 0 -69.5 -27.5t-22.5 -85.5v-65h242v66q0 89 43.5 137.5t118.5 48.5q71 0 118 -46
q7 -8 0 -15l-26 -39q-3 -4 -7 -5t-8 3q-17 15 -33.5 21.5t-38.5 6.5q-87 0 -87 -113v-65h143q11 0 11 -10v-52q0 -10 -11 -10h-143v-422q0 -11 -10 -11h-59q-11 0 -11 11v422h-242v-422q0 -11 -10 -11h-59zM766 0q-11 0 -11 11v729q0 10 11 10h59q10 0 10 -10v-729
q0 -11 -10 -11h-59z" />
    <glyph glyph-name="f_i" unicode="fi" horiz-adv-x="589" 
d="M119 0q-11 0 -11 11v422h-81q-11 0 -11 10v52q0 10 11 10h81v66q0 89 43.5 137.5t118.5 48.5q71 0 118 -46q7 -8 0 -15l-26 -39q-3 -4 -7 -5t-8 3q-17 15 -33.5 21.5t-38.5 6.5q-87 0 -87 -113v-65h312q10 0 10 -10v-484q0 -11 -10 -11h-59q-11 0 -11 11v422h-242v-422
q0 -11 -10 -11h-59zM432 625.5q-15 14.5 -15 37.5t15 37.5t38 14.5t38.5 -14.5t15.5 -37.5t-15.5 -37.5t-38.5 -14.5t-38 14.5z" />
    <glyph glyph-name="f_l" unicode="fl" horiz-adv-x="588" 
d="M119 0q-11 0 -11 11v422h-81q-11 0 -11 10v52q0 10 11 10h81v66q0 89 43.5 137.5t118.5 48.5q71 0 118 -46q7 -8 0 -15l-26 -39q-3 -4 -7 -5t-8 3q-17 15 -33.5 21.5t-38.5 6.5q-87 0 -87 -113v-65h143q11 0 11 -10v-52q0 -10 -11 -10h-143v-422q0 -11 -10 -11h-59z
M441 0q-11 0 -11 11v729q0 10 11 10h59q10 0 10 -10v-729q0 -11 -10 -11h-59z" />
    <glyph glyph-name=".notdef" horiz-adv-x="500" 
d="M50 0v750h400v-750h-400zM100 50h300v650h-300v-650z" />
    <glyph glyph-name=".null" 
 />
    <glyph glyph-name="nonmarkingreturn" unicode="&#xd;" horiz-adv-x="223" 
 />
    <glyph glyph-name="space" unicode=" " horiz-adv-x="223" 
 />
    <glyph glyph-name="exclam" unicode="!" horiz-adv-x="227" 
d="M89 207q-11 0 -11 11l-6 505q0 11 10 11h61q11 0 11 -11l-7 -505q0 -11 -10 -11h-48zM72.5 6q-16.5 16 -16.5 41t16.5 41t41.5 16t41.5 -16t16.5 -41t-16.5 -41t-41.5 -16t-41.5 16z" />
    <glyph glyph-name="quotedbl" unicode="&#x22;" horiz-adv-x="389" 
d="M96 505q-4 0 -7 2.5t-3 6.5l-9 211q0 9 9 9h60q9 0 9 -9l-9 -211q0 -4 -3 -6.5t-7 -2.5h-40zM253 505q-4 0 -7 2.5t-3 6.5l-9 211q0 9 9 9h60q9 0 9 -9l-9 -211q0 -4 -3 -6.5t-7 -2.5h-40z" />
    <glyph glyph-name="numbersign" unicode="#" horiz-adv-x="761" 
d="M141 0q-5 0 -8 3.5t-2 8.5l43 183h-110q-11 0 -10 12l11 48q4 9 12 9h114l49 207h-110q-11 0 -10 12l11 48q4 9 12 9h113l44 184q3 9 12 9h50q5 0 7.5 -3t1.5 -8l-43 -182h186l44 184q3 9 12 9h50q5 0 7.5 -3t1.5 -8l-43 -182h111q12 0 10 -11l-11 -48q-3 -10 -12 -10
h-115l-49 -207h111q12 0 10 -11l-11 -48q-3 -10 -12 -10h-115l-44 -186q-1 -4 -4.5 -6.5t-7.5 -2.5h-48q-5 0 -8 3.5t-2 8.5l43 183h-186l-44 -186q-4 -9 -12 -9h-49zM262 264h187l49 207h-186z" />
    <glyph glyph-name="dollar" unicode="$" horiz-adv-x="578" 
d="M276 -62q-10 0 -10 11v83q-84 6 -141 48t-83 118l-1 4q0 6 8 9l54 16l4 1q6 0 9 -9q19 -52 56.5 -79.5t93.5 -32.5v236l-18 5q-87 24 -132.5 70t-45.5 109q0 46 25 83.5t69.5 61t101.5 27.5v83q0 10 10 10h45q10 0 10 -10v-84q74 -8 123 -47t69 -105l1 -4q0 -6 -9 -9
l-56 -16l-4 -1q-6 0 -9 8q-15 43 -43 66.5t-72 30.5v-213l8 -2q91 -25 137 -74.5t46 -121.5q0 -71 -53 -119.5t-138 -57.5v-84q0 -11 -10 -11h-45zM180.5 468.5q26.5 -24.5 85.5 -42.5v197q-51 -5 -81.5 -30.5t-30.5 -63.5q0 -36 26.5 -60.5zM411.5 279q-26.5 28 -80.5 46
v-216q51 7 79 33.5t28 67.5t-26.5 69z" />
    <glyph glyph-name="percent" unicode="%" horiz-adv-x="906" 
d="M76 378q-45 56 -45 155t45 155t123 56t123 -56t45 -155t-45 -155t-123 -56t-123 56zM195 0q-6 0 -8 4t1 9l458 714q6 7 13 7h58q6 0 8.5 -4t-1.5 -9l-458 -714q-4 -7 -12 -7h-59zM271.5 420.5q25.5 38.5 25.5 112.5t-25.5 112.5t-72.5 38.5t-72 -38.5t-25 -112.5
t25 -112.5t72 -38.5t72.5 38.5zM584 46q-45 56 -45 155t45 155t123 56t123 -56t45 -155t-45 -155t-123 -56t-123 56zM779.5 88.5q25.5 38.5 25.5 112.5t-25.5 112.5t-72.5 38.5t-72 -38.5t-25 -112.5t25 -112.5t72 -38.5t72.5 38.5z" />
    <glyph glyph-name="ampersand" unicode="&#x26;" horiz-adv-x="698" 
d="M185 14.5q-61 28.5 -92.5 78t-31.5 110.5q0 70 35.5 118t104.5 67q-58 21 -88 65t-30 102q0 55 30.5 99t84 69t119.5 25q88 0 151.5 -46t83.5 -123l1 -4q0 -6 -8 -9l-61 -14h-3q-7 0 -10 8q-17 53 -57.5 83t-96.5 30q-64 0 -105.5 -36t-41.5 -92q0 -54 34 -89t92 -35h40
q10 0 10 -10v-52q0 -11 -10 -11h-36q-72 0 -112 -37t-40 -100q0 -66 47.5 -108t134.5 -42q98 0 147 42.5t49 116.5q0 49 -23.5 89t-56.5 40h-8q-7 0 -7 10v52q0 10 10 10h212q10 0 10 -10v-52q0 -11 -10 -11h-97q24 -23 38 -58.5t14 -78.5q0 -65 -31.5 -116t-94.5 -80
t-152 -29q-84 0 -145 28.5z" />
    <glyph glyph-name="quotesingle" unicode="'" horiz-adv-x="232" 
d="M96 505q-4 0 -7 2.5t-3 6.5l-9 211q0 9 9 9h60q9 0 9 -9l-9 -211q0 -4 -3 -6.5t-7 -2.5h-40z" />
    <glyph glyph-name="parenleft" unicode="(" horiz-adv-x="375" 
d="M54 320q0 452 290 470q11 0 11 -10v-56q0 -9 -10 -11q-105 -8 -155 -102.5t-50 -290.5t50 -290.5t155 -102.5q10 0 10 -11v-55q0 -12 -11 -10q-290 16 -290 469z" />
    <glyph glyph-name="parenright" unicode=")" horiz-adv-x="375" 
d="M29 -149q-9 0 -9 10v55q0 11 10 11q105 8 155 102.5t50 290.5t-50 290.5t-155 102.5q-10 2 -10 11v56q0 10 11 10q290 -18 290 -470q0 -453 -290 -469h-2z" />
    <glyph glyph-name="asterisk" unicode="*" horiz-adv-x="474" 
d="M93 388q-7 6 -3 15l89 127l-125 76q-7 5 -4 15l12 22q2 4 6 5t8 -1l128 -58l9 135q1 10 11 10h26q10 0 11 -10l9 -135l128 58q2 1 6 1q6 0 8 -5l12 -22q1 -2 1 -6q0 -5 -5 -9l-125 -76l89 -127q2 -4 2 -6q0 -4 -5 -9l-19 -14q-4 -2 -7 -2q-5 0 -8 4l-110 117l-110 -117
q-6 -7 -15 -2z" />
    <glyph glyph-name="plus" unicode="+" horiz-adv-x="600" 
d="M271 93q-4 0 -7 3.5t-3 7.5v184h-183q-4 0 -7 3.5t-3 7.5v55q0 4 3 7.5t7 3.5h183v184q0 4 3 7.5t7 3.5h58q5 0 8 -3t3 -8v-184h182q5 0 8 -3t3 -8v-55q0 -4 -3 -7.5t-8 -3.5h-182v-184q0 -4 -3 -7.5t-8 -3.5h-58z" />
    <glyph glyph-name="comma" unicode="," horiz-adv-x="232" 
d="M55 -152q-11 0 -8 11l44 136q-15 7 -24 20.5t-9 31.5q0 24 17 40.5t41 16.5q25 0 41.5 -16t16.5 -41q0 -17 -6 -36.5t-22 -55.5l-44 -100q-3 -7 -11 -7h-36z" />
    <glyph glyph-name="hyphen" unicode="-" horiz-adv-x="468" 
d="M87 288q-10 0 -10 10v56q0 10 10 10h294q11 0 11 -10v-56q0 -10 -11 -10h-294z" />
    <glyph glyph-name="period" unicode="." horiz-adv-x="232" 
d="M74.5 6q-16.5 16 -16.5 41t16.5 41t41.5 16t41.5 -16t16.5 -41t-16.5 -41t-41.5 -16t-41.5 16z" />
    <glyph glyph-name="slash" unicode="/" horiz-adv-x="391" 
d="M50 -110q-11 0 -9 12l229 839q3 9 12 9h59q12 0 9 -12l-229 -839q-1 -9 -11 -9h-60z" />
    <glyph glyph-name="zero" unicode="0" horiz-adv-x="654" 
d="M181 31.5q-61 45.5 -93.5 131t-32.5 204.5t32.5 204.5t93.5 131t146 45.5t146 -45.5t93.5 -131t32.5 -204.5t-32.5 -204.5t-93.5 -131t-146 -45.5t-146 45.5zM464 144.5q48 76.5 48 222.5t-48 222.5t-137 76.5t-137 -76.5t-48 -222.5t48 -222.5t137 -76.5t137 76.5z" />
    <glyph glyph-name="one" unicode="1" horiz-adv-x="402" 
d="M223 0q-10 0 -10 11v603l-142 -79q-4 -2 -6 -2q-4 0 -8 7l-13 22q-2 4 -2 6q0 5 5 8l182 153q5 5 13 5h44q10 0 10 -10v-713q0 -11 -10 -11h-63z" />
    <glyph glyph-name="two" unicode="2" horiz-adv-x="606" 
d="M71 0q-11 0 -11 11v18q0 6 5 13l178 197q79 87 119 140t54 90t14 77q0 56 -38.5 88t-100.5 32q-58 0 -99 -30t-60 -87q-3 -10 -13 -7l-59 16q-11 2 -8 13q27 84 90 130.5t152 46.5q65 0 115.5 -24.5t78.5 -68.5t28 -102q0 -51 -15.5 -97t-61.5 -109t-136 -158l-104 -110
h336q10 0 10 -10v-58q0 -11 -10 -11h-464z" />
    <glyph glyph-name="three" unicode="3" horiz-adv-x="603" 
d="M137 38q-68 52 -91 146l-1 4q0 6 8 8l58 16h3q7 0 10 -7q20 -67 65 -102t109 -35q48 0 85 19t58 51.5t21 73.5q0 62 -44.5 99t-118.5 37h-40q-10 0 -10 11v52q0 10 10 10h42q63 0 103.5 34.5t40.5 86.5q0 54 -42 89t-107 35q-60 0 -102 -31.5t-59 -85.5q-3 -10 -13 -7
l-59 16q-10 3 -7 13q23 81 87.5 129t153.5 48q67 0 120.5 -25t84 -69t30.5 -99q0 -57 -33 -102t-93 -67q67 -20 104.5 -67.5t37.5 -115.5q0 -61 -31.5 -110.5t-88.5 -78t-130 -28.5q-93 0 -161 52z" />
    <glyph glyph-name="four" unicode="4" horiz-adv-x="656" 
d="M429 0q-11 0 -11 11v150h-369q-11 0 -11 11v20q0 8 4 13l392 523q5 6 13 6h44q11 0 11 -10v-484h101q11 0 11 -10v-58q0 -11 -11 -11h-101v-150q0 -11 -11 -11h-62zM158 240h260v351z" />
    <glyph glyph-name="five" unicode="5" horiz-adv-x="600" 
d="M147 38.5q-69 52.5 -93 146.5l-1 4q0 6 8 9l56 14l4 1q6 0 9 -8q20 -68 66.5 -102.5t109.5 -34.5q73 0 118 44.5t45 120.5t-44 121t-119 45q-97 0 -173 -76q-7 -6 -15 -2l-31 14q-8 5 -7 13l34 376q1 10 11 10h384q10 0 10 -10v-58q0 -11 -10 -11h-329l-24 -244
q70 62 170 62q68 0 120 -30t80.5 -84.5t28.5 -126.5t-31 -128t-87 -87t-128 -31q-93 0 -162 52.5z" />
    <glyph glyph-name="six" unicode="6" horiz-adv-x="589" 
d="M165 17.5q-57 31.5 -88.5 88t-31.5 129.5q0 66 27 129.5t96 163.5l142 200q5 6 13 6h73q6 0 8 -4t-2 -9l-198 -276q49 29 111 29q68 0 121 -30.5t82.5 -85.5t29.5 -126q0 -73 -31.5 -128.5t-88.5 -86.5t-132 -31q-74 0 -131 31.5zM415 113q45 45 45 121t-44.5 120.5
t-119.5 44.5t-120 -44.5t-45 -120.5t45 -121t120 -45q74 0 119 45z" />
    <glyph glyph-name="seven" unicode="7" horiz-adv-x="580" 
d="M153 0q-6 0 -8 3.5t0 8.5l282 643h-376q-11 0 -11 11v58q0 10 11 10h473q11 0 11 -10v-20q0 -7 -3 -13l-295 -683q-5 -8 -13 -8h-71z" />
    <glyph glyph-name="eight" unicode="8" horiz-adv-x="626" 
d="M177 13q-60 27 -93.5 76t-33.5 112q0 66 40 116t109 71q-58 20 -92.5 65.5t-34.5 101.5t31 100t86 68.5t124 24.5q70 0 124.5 -24.5t85.5 -68.5t31 -100t-34.5 -101.5t-92.5 -65.5q68 -21 108.5 -71.5t40.5 -115.5q0 -63 -33.5 -111.5t-93.5 -76t-136 -27.5t-136 27z
M424.5 454q43.5 36 43.5 92q0 54 -43.5 90t-111.5 36t-111.5 -36t-43.5 -90q0 -56 43.5 -92t111.5 -36t111.5 36zM404.5 81.5q40.5 18.5 63 52t22.5 75.5q0 41 -22.5 73.5t-63 51t-91.5 18.5t-91.5 -18.5t-63 -51t-22.5 -73.5q0 -42 22.5 -75.5t63 -52t91.5 -18.5t91.5 18.5
z" />
    <glyph glyph-name="nine" unicode="9" horiz-adv-x="588" 
d="M183 0q-6 0 -8 4t2 9l204 275q-46 -27 -107 -27q-69 0 -122 30t-82 85t-29 127q0 73 31.5 128.5t88.5 86t131 30.5q75 0 132 -31.5t88.5 -88t31.5 -129.5q0 -67 -28 -131.5t-99 -160.5l-149 -200q-5 -7 -13 -7h-72zM412.5 380q44.5 45 44.5 121t-44.5 120.5t-119.5 44.5
t-120 -44.5t-45 -120.5t45 -121t120 -45t119.5 45z" />
    <glyph glyph-name="colon" unicode=":" horiz-adv-x="232" 
d="M74.5 412q-16.5 16 -16.5 41t16.5 41t41.5 16t41.5 -16t16.5 -41t-16.5 -41t-41.5 -16t-41.5 16zM74.5 6q-16.5 16 -16.5 41t16.5 41t41.5 16t41.5 -16t16.5 -41t-16.5 -41t-41.5 -16t-41.5 16z" />
    <glyph glyph-name="semicolon" unicode=";" horiz-adv-x="232" 
d="M74.5 412q-16.5 16 -16.5 41t16.5 41t41.5 16t41.5 -16t16.5 -41t-16.5 -41t-41.5 -16t-41.5 16zM55 -152q-11 0 -8 11l44 136q-15 7 -24 20.5t-9 31.5q0 24 17 40.5t41 16.5q25 0 41.5 -16t16.5 -41q0 -17 -6 -36.5t-22 -55.5l-44 -100q-3 -7 -11 -7h-36z" />
    <glyph glyph-name="less" unicode="&#x3c;" horiz-adv-x="600" 
d="M501 100q0 -6 -3.5 -8t-8.5 1l-402 202q-8 3 -8 12v32q0 8 8 13l402 202q4 2 6 2q6 0 6 -10v-61q0 -9 -8 -12l-301 -149l301 -149q8 -3 8 -12v-63z" />
    <glyph glyph-name="equal" unicode="=" horiz-adv-x="600" 
d="M78 420q-4 0 -7 3t-3 7v56q0 4 3 7t7 3h444q4 0 7.5 -3t3.5 -7v-56q0 -4 -3.5 -7t-7.5 -3h-444zM78 163q-4 0 -7 3t-3 7v56q0 4 3 7t7 3h444q4 0 7.5 -3t3.5 -7v-56q0 -4 -3.5 -7t-7.5 -3h-444z" />
    <glyph glyph-name="greater" unicode="&#x3e;" horiz-adv-x="600" 
d="M111 93q-4 -2 -6 -2q-6 0 -6 9v61q0 8 8 13l303 149l-303 148q-8 5 -8 13v62q0 6 3.5 8t8.5 0l403 -202q7 -4 7 -13v-32q0 -9 -7 -12z" />
    <glyph glyph-name="question" unicode="?" horiz-adv-x="538" 
d="M208 162q-10 0 -10 11l-3 204q0 11 11 11h40q78 0 119.5 40.5t41.5 108.5q0 57 -37.5 93t-101.5 36q-112 0 -155 -114q-5 -10 -14 -7l-59 16q-10 3 -7 13q28 83 90.5 128.5t149.5 45.5q65 0 115 -26t78 -72.5t28 -105.5q0 -61 -26 -111.5t-76 -81t-117 -34.5l-2 -144
q0 -11 -10 -11h-55zM194.5 6q-16.5 16 -16.5 40t16.5 39.5t40.5 15.5q25 0 41.5 -15.5t16.5 -39.5q0 -25 -16.5 -40.5t-41.5 -15.5q-24 0 -40.5 16z" />
    <glyph glyph-name="at" unicode="@" horiz-adv-x="986" 
d="M261 -148.5q-98 53.5 -150.5 150.5t-52.5 224q0 129 55.5 227.5t155.5 152t231 53.5t227.5 -51.5t148.5 -146t52 -218.5q0 -73 -22 -130.5t-62 -90t-91 -32.5q-48 0 -78 26.5t-34 75.5q-23 -47 -69 -74.5t-101 -27.5q-65 0 -115 29.5t-77.5 83t-27.5 122.5t27.5 122.5
t77.5 83t115 29.5q53 0 97.5 -25.5t68.5 -68.5l3 74q0 11 11 11h41q10 0 10 -11v-306q0 -40 14.5 -59t45.5 -19q42 0 68.5 53t26.5 134q0 112 -44.5 191t-125 119.5t-187.5 40.5t-191 -41.5t-132 -124.5t-48 -202q0 -118 47 -199.5t131 -122.5t194 -41q54 0 100 9l4 1
q7 0 7 -10v-43q0 -10 -7 -11q-45 -11 -114 -11q-132 0 -230 53.5zM593 104q43 46 43 121t-43 121.5t-112 46.5t-112 -46.5t-43 -121.5t43 -121t112 -46t112 46z" />
    <glyph glyph-name="A" unicode="A" horiz-adv-x="720" 
d="M35 0q-6 0 -8 3.5t0 8.5l291 714q4 8 13 8h59q9 0 12 -8l292 -714l1 -4q0 -8 -9 -8h-72q-9 0 -12 8l-69 176h-347l-69 -176q-4 -8 -13 -8h-69zM216 262h287l-144 368z" />
    <glyph glyph-name="B" unicode="B" horiz-adv-x="671" 
d="M101 0q-11 0 -11 11v713q0 10 11 10h239q120 0 181 -51.5t61 -134.5q0 -60 -28.5 -102.5t-82.5 -61.5q72 -17 109 -63t37 -116q0 -95 -65 -150t-199 -55h-252zM174 656v-238h167q79 0 117.5 31t38.5 88q0 56 -41 87.5t-121 31.5h-161zM174 341v-262h179q89 0 133.5 34
t44.5 98q0 63 -44.5 96.5t-133.5 33.5h-179z" />
    <glyph glyph-name="C" unicode="C" horiz-adv-x="779" 
d="M223.5 32.5q-78.5 46.5 -122 133t-43.5 201.5t44 201.5t123 133t182 46.5q111 0 189 -50t116 -143l1 -4q0 -7 -8 -10l-61 -18l-4 -1q-5 0 -9 7q-65 137 -223 137q-83 0 -142.5 -38t-90 -105.5t-30.5 -155.5q0 -89 31 -156.5t90 -105t142 -37.5q88 0 148.5 43t89.5 124
q3 10 13 7l61 -18q9 -3 7 -11q-33 -104 -115 -165.5t-206 -61.5q-104 0 -182.5 46.5z" />
    <glyph glyph-name="D" unicode="D" horiz-adv-x="748" 
d="M101 0q-11 0 -11 11v713q0 10 11 10h219q183 0 276.5 -97t93.5 -270q0 -172 -93.5 -269.5t-276.5 -97.5h-219zM174 655v-576h136q145 0 219 75t74 213t-74 213t-219 75h-136z" />
    <glyph glyph-name="E" unicode="E" horiz-adv-x="604" 
d="M101 0q-11 0 -11 11v713q0 10 11 10h442q11 0 11 -10v-58q0 -11 -11 -11h-369v-236h337q10 0 10 -11v-57q0 -10 -10 -10h-337v-262h381q10 0 10 -10v-58q0 -11 -10 -11h-454z" />
    <glyph glyph-name="F" unicode="F" horiz-adv-x="576" 
d="M101 0q-11 0 -11 11v713q0 10 11 10h428q11 0 11 -10v-58q0 -11 -11 -11h-355v-253h312q11 0 11 -10v-58q0 -11 -11 -11h-312v-312q0 -11 -11 -11h-62z" />
    <glyph glyph-name="G" unicode="G" horiz-adv-x="797" 
d="M226 33q-80 47 -124 133t-44 201t45 201t125 133t183 47q111 0 189 -50.5t115 -142.5q1 -2 1 -5q0 -7 -7 -9l-62 -18l-3 -1q-6 0 -10 7q-63 137 -222 137q-84 0 -144 -38t-91.5 -105.5t-31.5 -155.5t31.5 -155.5t92 -105.5t143.5 -38q111 0 177 63t66 173h-225
q-11 0 -11 10v57q0 11 11 11h298q11 0 11 -11v-62q0 -93 -38 -166t-112 -115t-179 -42q-104 0 -184 47z" />
    <glyph glyph-name="H" unicode="H" horiz-adv-x="755" 
d="M101 0q-11 0 -11 11v713q0 10 11 10h62q11 0 11 -10v-306h408v306q0 10 10 10h63q10 0 10 -10v-713q0 -11 -10 -11h-63q-10 0 -10 11v328h-408v-328q0 -11 -11 -11h-62z" />
    <glyph glyph-name="I" unicode="I" horiz-adv-x="264" 
d="M101 0q-11 0 -11 11v713q0 10 11 10h62q11 0 11 -10v-713q0 -11 -11 -11h-62z" />
    <glyph glyph-name="J" unicode="J" horiz-adv-x="498" 
d="M86 24q-51 38 -73 114l-1 4q0 6 9 9l58 17l4 1q6 0 9 -9q31 -92 117 -92q72 0 98.5 44.5t26.5 132.5v410h-213q-11 0 -11 11v58q0 10 11 10h286q10 0 10 -10v-494q0 -124 -51.5 -184t-156.5 -60q-72 0 -123 38z" />
    <glyph glyph-name="K" unicode="K" horiz-adv-x="695" 
d="M101 0q-11 0 -11 11v713q0 10 11 10h62q11 0 11 -10v-393l351 398q4 5 13 5h73q7 0 8.5 -4t-2.5 -9l-241 -270l279 -438l2 -5q0 -8 -10 -8h-75q-8 0 -12 7l-239 382l-147 -164v-214q0 -11 -11 -11h-62z" />
    <glyph glyph-name="L" unicode="L" horiz-adv-x="601" 
d="M101 0q-11 0 -11 11v713q0 10 11 10h62q11 0 11 -10v-644h384q11 0 11 -10v-59q0 -11 -11 -11h-457z" />
    <glyph glyph-name="M" unicode="M" horiz-adv-x="932" 
d="M101 0q-11 0 -11 11v713q0 10 11 10h67q9 0 12 -7l288 -486l286 486q4 7 12 7h65q11 0 11 -10v-713q0 -11 -11 -11h-60q-10 0 -10 11v579l-262 -443q-3 -7 -12 -7h-42q-8 0 -12 7l-262 443v-579q0 -11 -10 -11h-60z" />
    <glyph glyph-name="N" unicode="N" horiz-adv-x="748" 
d="M101 0q-11 0 -11 11v713q0 10 11 10h67q7 0 13 -7l396 -592v589q0 10 11 10h60q10 0 10 -10v-713q0 -11 -10 -11h-67q-7 0 -13 7l-397 594v-590q0 -11 -10 -11h-60z" />
    <glyph glyph-name="O" unicode="O" horiz-adv-x="828" 
d="M229.5 33q-80.5 47 -126 133.5t-45.5 200.5q0 115 45.5 201t126 133t184.5 47t185 -47t126 -133t45 -201q0 -114 -45 -200.5t-126 -133.5t-185 -47t-184.5 47zM559 106.5q61 38.5 93 106.5t32 154q0 87 -32 154.5t-93 106t-145 38.5q-83 0 -144 -38.5t-93 -106.5
t-32 -154t32 -154t93 -106.5t144 -38.5q84 0 145 38.5z" />
    <glyph glyph-name="P" unicode="P" horiz-adv-x="636" 
d="M101 0q-11 0 -11 11v713q0 10 11 10h213q138 0 206.5 -63.5t68.5 -179.5q0 -117 -68 -180t-207 -63h-140v-237q0 -11 -11 -11h-62zM174 656v-330h135q99 0 146 41t47 126q0 81 -47 122t-146 41h-135z" />
    <glyph glyph-name="Q" unicode="Q" horiz-adv-x="842" 
d="M415 0q-108 0 -188.5 45.5t-124.5 130t-44 196.5t44.5 197.5t124.5 132t185 46.5q104 0 183 -46t122.5 -128.5t43.5 -189.5q0 -106 -43.5 -186.5t-119.5 -119.5h176q10 0 10 -10v-57q0 -11 -10 -11h-359zM552.5 119.5q59.5 37.5 91 104t31.5 151.5q0 83 -31.5 149
t-91.5 104t-142 38q-83 0 -143 -38t-91 -104.5t-31 -149.5q0 -84 31 -150.5t91 -104t143 -37.5t142.5 37.5z" />
    <glyph glyph-name="R" unicode="R" horiz-adv-x="665" 
d="M101 0q-11 0 -11 11v713q0 10 11 10h213q275 0 275 -240q0 -77 -32.5 -132.5t-98.5 -83.5l153 -265q2 -4 2 -6q0 -7 -9 -7h-72q-8 0 -12 7l-143 250q-25 -4 -63 -4h-140v-242q0 -11 -11 -11h-62zM174 656v-325h135q100 0 146.5 40.5t46.5 122.5t-46.5 122t-146.5 40h-135
z" />
    <glyph glyph-name="S" unicode="S" horiz-adv-x="588" 
d="M135.5 34.5q-66.5 48.5 -94.5 144.5l-1 4q0 6 8 9l60 15l4 1q6 0 9 -8q23 -69 66 -100.5t114 -31.5q72 0 115 31t43 87t-36.5 88t-114.5 59l-55 19q-193 65 -193 203q0 56 30 100t82.5 68.5t117.5 24.5q93 0 155 -44.5t86 -131.5l1 -4q0 -7 -8 -9l-63 -16l-4 -1
q-6 0 -9 8q-19 60 -58 88t-100 28q-64 0 -104 -30t-40 -79q0 -43 36.5 -75.5t113.5 -57.5l49 -16q105 -35 152.5 -85.5t47.5 -136.5q0 -58 -31 -103.5t-86.5 -71t-126.5 -25.5q-99 0 -165.5 48.5z" />
    <glyph glyph-name="T" unicode="T" horiz-adv-x="652" 
d="M295 0q-11 0 -11 11v644h-241q-10 0 -10 11v58q0 10 10 10h566q10 0 10 -10v-58q0 -11 -10 -11h-241v-644q0 -11 -11 -11h-62z" />
    <glyph glyph-name="U" unicode="U" horiz-adv-x="729" 
d="M225 17q-64 31 -104 101.5t-40 180.5v425q0 10 11 10h62q11 0 11 -10v-413q0 -123 55 -183t144 -60t144.5 60.5t55.5 182.5v413q0 10 11 10h62q11 0 11 -10v-425q0 -110 -40.5 -180t-104.5 -101.5t-139 -31.5t-139 31z" />
    <glyph glyph-name="V" unicode="V" horiz-adv-x="712" 
d="M327 0q-9 0 -13 8l-287 714q-1 2 -1 5q0 7 9 7h71q10 0 13 -8l239 -619l238 619q3 8 12 8h70q5 0 7.5 -3.5t0.5 -8.5l-288 -714q-3 -8 -12 -8h-59z" />
    <glyph glyph-name="W" unicode="W" horiz-adv-x="1092" 
d="M293 0q-10 0 -12 8l-255 714l-1 3q0 9 10 9h72q9 0 12 -8l201 -591l188 590q1 9 11 9h55q9 0 12 -9l188 -590l201 591q3 8 12 8h70q5 0 7.5 -3.5t1.5 -8.5l-255 -714q-2 -8 -12 -8h-58q-9 0 -12 9l-183 576l-183 -576q-3 -9 -12 -9h-58z" />
    <glyph glyph-name="X" unicode="X" horiz-adv-x="654" 
d="M38 0q-6 0 -8 4t1 9l244 369l-225 339l-2 6q0 7 9 7h71q8 0 12 -7l188 -289l187 289q4 7 12 7h70q6 0 8 -3.5t-1 -9.5l-224 -338l243 -370q2 -4 2 -6q0 -7 -9 -7h-70q-8 0 -12 7l-208 320l-207 -320q-3 -7 -12 -7h-69z" />
    <glyph glyph-name="Y" unicode="Y" horiz-adv-x="678" 
d="M308 0q-10 0 -10 11v278l-271 432q-2 4 -2 6q0 7 9 7h72q9 0 12 -7l223 -364l221 364q3 7 12 7h70q6 0 8.5 -4t-0.5 -9l-271 -431v-279q0 -11 -10 -11h-63z" />
    <glyph glyph-name="Z" unicode="Z" horiz-adv-x="620" 
d="M50 0q-10 0 -10 11v19q0 8 4 13l397 612h-379q-11 0 -11 11v58q0 10 11 10h495q10 0 10 -10v-20q0 -8 -4 -13l-397 -612h397q11 0 11 -10v-58q0 -11 -11 -11h-513z" />
    <glyph glyph-name="bracketleft" unicode="[" horiz-adv-x="311" 
d="M79 -150q-11 0 -11 11v919q0 10 11 10h201q11 0 11 -10v-54q0 -10 -11 -10h-131v-791h131q11 0 11 -11v-53q0 -11 -11 -11h-201z" />
    <glyph glyph-name="backslash" unicode="\" horiz-adv-x="391" 
d="M282 -110q-9 0 -12 9l-229 839v3q0 9 9 9h60q10 0 11 -9l229 -839l1 -3q0 -9 -10 -9h-59z" />
    <glyph glyph-name="bracketright" unicode="]" horiz-adv-x="311" 
d="M31 -150q-11 0 -11 11v53q0 11 11 11h131v791h-131q-11 0 -11 10v54q0 10 11 10h201q11 0 11 -10v-919q0 -11 -11 -11h-201z" />
    <glyph glyph-name="asciicircum" unicode="^" horiz-adv-x="600" 
d="M80 348q-6 0 -8.5 4t0.5 9l200 366q3 7 12 7h33q8 0 12 -7l199 -366q2 -4 2 -6q0 -7 -9 -7h-60q-9 0 -13 7l-147 280l-147 -280q-3 -7 -12 -7h-62z" />
    <glyph glyph-name="underscore" unicode="_" horiz-adv-x="564" 
d="M55 -149q-3 0 -6.5 3.5t-3.5 7.5v55q0 4 3.5 7.5t6.5 3.5h454q4 0 7 -3.5t3 -7.5v-55q0 -4 -3 -7.5t-7 -3.5h-454z" />
    <glyph glyph-name="a" unicode="a" horiz-adv-x="623" 
d="M156 23.5q-55 33.5 -84.5 93t-29.5 136.5q0 76 29.5 135.5t84.5 93t127 33.5q60 0 109.5 -27t76.5 -74l3 81q0 10 11 10h52q10 0 10 -10v-484q0 -11 -10 -11h-52q-11 0 -11 11l-3 81q-27 -47 -76.5 -74.5t-109.5 -27.5q-72 0 -127 33.5zM423.5 116q48.5 52 48.5 137
q0 55 -22 98t-61.5 66.5t-90.5 23.5t-90.5 -23.5t-61.5 -66.5t-22 -98q0 -85 48.5 -137t125.5 -52t125.5 52z" />
    <glyph glyph-name="b" unicode="b" horiz-adv-x="623" 
d="M232 17q-49 27 -77 75l-4 -81q0 -11 -11 -11h-51q-11 0 -11 11v729q0 10 11 10h59q10 0 10 -10v-321q28 45 76 70.5t106 25.5q73 0 127.5 -33.5t84.5 -93t30 -135.5q0 -77 -29.5 -136.5t-84.5 -93t-128 -33.5q-59 0 -108 27zM450.5 116q48.5 52 48.5 137q0 55 -22 98
t-61.5 66.5t-90.5 23.5t-90.5 -23.5t-61.5 -66.5t-22 -98q0 -85 48.5 -137t125.5 -52t125.5 52z" />
    <glyph glyph-name="c" unicode="c" horiz-adv-x="549" 
d="M160.5 23.5q-56.5 33.5 -87.5 93t-31 136.5t31 136.5t88 92.5t132 33q79 0 133.5 -34.5t80.5 -103.5l1 -4q0 -6 -8 -9l-50 -15l-4 -1q-6 0 -9 8q-39 85 -140 85q-84 0 -128.5 -54t-44.5 -134q0 -81 44.5 -135t128.5 -54q103 0 143 90q4 9 13 6l54 -14q11 -3 6 -13
q-27 -71 -83.5 -107t-136.5 -36q-76 0 -132.5 33.5z" />
    <glyph glyph-name="d" unicode="d" horiz-adv-x="623" 
d="M156 23.5q-55 33.5 -84.5 93t-29.5 136.5q0 76 29.5 135.5t84.5 93t127 33.5q58 0 106 -25.5t76 -69.5v320q0 10 11 10h59q10 0 10 -10v-729q0 -11 -10 -11h-52q-11 0 -11 11l-3 81q-27 -47 -76.5 -74.5t-109.5 -27.5q-72 0 -127 33.5zM423.5 116q48.5 52 48.5 137
q0 55 -22 98t-61.5 66.5t-90.5 23.5t-90.5 -23.5t-61.5 -66.5t-22 -98q0 -85 48.5 -137t125.5 -52t125.5 52z" />
    <glyph glyph-name="e" unicode="e" horiz-adv-x="552" 
d="M158 24q-56 34 -86 93.5t-30 135.5t30.5 135.5t86.5 93t130 33.5q110 0 170.5 -75.5t58.5 -201.5q0 -11 -11 -11h-382q8 -76 51.5 -120t112.5 -44q104 0 147 85q4 8 14 5l50 -18q5 -2 6.5 -5.5t-0.5 -7.5q-32 -66 -87.5 -99t-129.5 -33q-75 0 -131 34zM180 402
q-44 -41 -54 -112h307q-5 70 -43.5 111.5t-100.5 41.5q-65 0 -109 -41z" />
    <glyph glyph-name="f" unicode="f" horiz-adv-x="370" 
d="M119 0q-11 0 -11 11v422h-81q-11 0 -11 10v52q0 10 11 10h81v66q0 89 43 137.5t114 48.5q103 0 149 -99q1 -1 1 -4q0 -7 -7 -10l-47 -19l-4 -1q-6 0 -10 7q-13 27 -32 39.5t-45 12.5q-40 0 -61 -28.5t-21 -84.5v-65h143q11 0 11 -10v-52q0 -10 -11 -10h-143v-422
q0 -11 -10 -11h-59z" />
    <glyph glyph-name="g" unicode="g" horiz-adv-x="623" 
d="M154.5 -191.5q-59.5 36.5 -87.5 104.5q-1 2 -1 6q0 6 7 7l48 18q2 1 5 1q6 0 9 -6q21 -45 59.5 -69t99.5 -24q74 0 122.5 36.5t48.5 117.5v86q-28 -45 -76.5 -70.5t-105.5 -25.5q-72 0 -127 33.5t-84.5 93t-29.5 136.5q0 76 29.5 135.5t84.5 93t127 33.5q60 0 109.5 -27
t76.5 -74l3 81q0 10 11 10h52q10 0 10 -10v-487q0 -117 -69 -176.5t-180 -59.5q-82 0 -141.5 36.5zM423.5 116q48.5 52 48.5 137q0 55 -22 98t-61.5 66.5t-90.5 23.5t-90.5 -23.5t-61.5 -66.5t-22 -98q0 -85 48.5 -137t125.5 -52t125.5 52z" />
    <glyph glyph-name="h" unicode="h" horiz-adv-x="592" 
d="M89 0q-11 0 -11 11v729q0 10 11 10h59q10 0 10 -10v-320q28 46 76.5 70.5t101.5 24.5q85 0 133 -49.5t48 -137.5v-317q0 -11 -10 -11h-59q-11 0 -11 11v284q0 73 -30 109.5t-92 36.5q-38 0 -74 -19.5t-59.5 -58.5t-23.5 -96v-256q0 -11 -10 -11h-59z" />
    <glyph glyph-name="i" unicode="i" horiz-adv-x="236" 
d="M80 633.5q-15 14.5 -15 36.5t15 36.5t38 14.5t38 -14.5t15 -36.5t-15 -36.5t-38 -14.5t-38 14.5zM89 0q-11 0 -11 11v484q0 10 11 10h59q10 0 10 -10v-484q0 -11 -10 -11h-59z" />
    <glyph glyph-name="j" unicode="j" horiz-adv-x="236" 
d="M80 633.5q-15 14.5 -15 36.5t15 36.5t38 14.5t38 -14.5t15 -36.5t-15 -36.5t-38 -14.5t-38 14.5zM-127 -134q-1 2 -1 5q0 5 7 9l46 17l4 1q6 0 10 -7q10 -24 25 -34.5t41 -10.5q73 0 73 109v540q0 10 11 10h59q10 0 10 -10v-537q0 -92 -40 -139t-111 -47q-99 0 -134 94z
" />
    <glyph glyph-name="k" unicode="k" horiz-adv-x="546" 
d="M89 0q-11 0 -11 11v729q0 10 11 10h59q10 0 10 -10v-466l233 226q5 5 13 5h77q9 0 9 -6q0 -3 -4 -7l-182 -172l207 -307q2 -4 2 -6q0 -7 -9 -7h-71q-8 0 -13 7l-175 257l-87 -82v-171q0 -11 -10 -11h-59z" />
    <glyph glyph-name="l" unicode="l" horiz-adv-x="236" 
d="M89 0q-11 0 -11 11v729q0 10 11 10h59q10 0 10 -10v-729q0 -11 -10 -11h-59z" />
    <glyph glyph-name="m" unicode="m" horiz-adv-x="925" 
d="M89 0q-11 0 -11 11v484q0 10 11 10h51q11 0 11 -10l4 -83q25 49 72.5 76t101.5 27q61 0 103.5 -29t59.5 -83q25 54 75 83t108 29q81 0 128 -50t47 -137v-317q0 -11 -10 -11h-59q-11 0 -11 11v284q0 146 -116 146q-38 0 -72 -19.5t-56 -58.5t-22 -96v-256q0 -11 -10 -11
h-59q-11 0 -11 11v284q0 146 -116 146q-38 0 -72 -19.5t-56 -58.5t-22 -96v-256q0 -11 -10 -11h-59z" />
    <glyph glyph-name="n" unicode="n" horiz-adv-x="592" 
d="M89 0q-11 0 -11 11v484q0 10 11 10h51q11 0 11 -10l4 -81q27 48 77 74.5t104 26.5q85 0 133 -49.5t48 -137.5v-317q0 -11 -10 -11h-59q-11 0 -11 11v284q0 73 -30 109.5t-92 36.5q-38 0 -74 -19.5t-59.5 -58.5t-23.5 -96v-256q0 -11 -10 -11h-59z" />
    <glyph glyph-name="o" unicode="o" horiz-adv-x="596" 
d="M164 24q-58 34 -90 93.5t-32 135.5t32 135.5t90 93t134 33.5t134.5 -33.5t90.5 -93t32 -135.5t-32 -135.5t-90.5 -93.5t-134.5 -34t-134 34zM423.5 116q48.5 52 48.5 137q0 55 -22 98t-61.5 66.5t-90.5 23.5t-90.5 -23.5t-61.5 -66.5t-22 -98q0 -85 48.5 -137t125.5 -52
t125.5 52z" />
    <glyph glyph-name="p" unicode="p" horiz-adv-x="623" 
d="M89 -218q-11 0 -11 11v702q0 10 11 10h51q11 0 11 -10l4 -81q28 47 77 74t108 27q73 0 127.5 -33.5t84.5 -93t30 -135.5q0 -77 -29.5 -136.5t-84.5 -93t-128 -33.5q-57 0 -105.5 26t-76.5 71v-294q0 -11 -10 -11h-59zM450.5 116q48.5 52 48.5 137q0 55 -22 98t-61.5 66.5
t-90.5 23.5t-90.5 -23.5t-61.5 -66.5t-22 -98q0 -85 48.5 -137t125.5 -52t125.5 52z" />
    <glyph glyph-name="q" unicode="q" horiz-adv-x="623" 
d="M476 -218q-9 0 -11 11v293q-28 -45 -76.5 -70.5t-105.5 -25.5q-72 0 -127 33.5t-84.5 93t-29.5 136.5q0 76 29.5 135.5t84.5 93t127 33.5q60 0 109.5 -27t76.5 -74l3 81q0 10 11 10h52q10 0 10 -10v-702q0 -11 -10 -11h-59zM423.5 116q48.5 52 48.5 137q0 55 -22 98
t-61.5 66.5t-90.5 23.5t-90.5 -23.5t-61.5 -66.5t-22 -98q0 -85 48.5 -137t125.5 -52t125.5 52z" />
    <glyph glyph-name="r" unicode="r" horiz-adv-x="383" 
d="M89 0q-11 0 -11 11v484q0 10 11 10h51q11 0 11 -10l4 -87q28 49 73.5 76.5t98.5 27.5q20 0 27 -2q9 -1 9 -11v-58q0 -10 -9 -10q-6 0 -16.5 1.5t-19.5 1.5q-41 0 -78 -21t-59.5 -58t-22.5 -81v-263q0 -11 -10 -11h-59z" />
    <glyph glyph-name="s" unicode="s" horiz-adv-x="473" 
d="M113.5 23.5q-53.5 33.5 -77.5 100.5l-1 4q0 6 8 9l52 14q2 1 5 1q7 0 8 -7q19 -43 52 -62.5t84 -19.5q46 0 73.5 17.5t27.5 51.5q0 29 -23 46.5t-76 32.5l-30 8q-82 23 -119.5 61.5t-37.5 94.5q0 61 48.5 100.5t127.5 39.5q67 0 115 -30.5t70 -91.5q1 -2 1 -5t-2 -5
t-5 -3l-52 -16q-2 -1 -5 -1q-5 0 -9 7q-33 73 -114 73q-42 0 -67.5 -18t-25.5 -50q0 -29 23.5 -47t80.5 -33l28 -7q82 -21 118.5 -58.5t36.5 -95.5q0 -65 -50.5 -104.5t-130.5 -39.5t-133.5 33.5z" />
    <glyph glyph-name="t" unicode="t" horiz-adv-x="397" 
d="M145 35.5q-38 45.5 -38 139.5v258h-89q-10 0 -10 10v52q0 10 10 10h89v155q0 10 10 10h59q11 0 11 -10v-155h140q10 0 10 -10v-52q0 -10 -10 -10h-140v-260q0 -57 17.5 -83t55.5 -26q43 0 65 46q5 10 14 5l45 -19q10 -5 4 -17q-44 -89 -135 -89q-70 0 -108 45.5z" />
    <glyph glyph-name="u" unicode="u" horiz-adv-x="589" 
d="M122.5 40q-47.5 50 -47.5 137v318q0 10 10 10h59q11 0 11 -10v-284q0 -73 29.5 -110t91.5 -37q38 0 73.5 19.5t58.5 58.5t23 96v257q0 10 11 10h59q10 0 10 -10v-484q0 -11 -10 -11h-52q-11 0 -11 11l-3 81q-27 -49 -76.5 -75.5t-103.5 -26.5q-85 0 -132.5 50z" />
    <glyph glyph-name="v" unicode="v" horiz-adv-x="541" 
d="M252 0q-9 0 -12 8l-213 485q-2 4 -2 6q0 6 10 6h70q9 0 13 -8l155 -379l155 379q4 8 13 8h66q13 0 8 -12l-213 -485q-5 -8 -13 -8h-37z" />
    <glyph glyph-name="w" unicode="w" horiz-adv-x="808" 
d="M212 0q-9 0 -12 8l-174 485l-1 4q0 8 10 8h71q9 0 12 -8l117 -358l142 358q3 8 12 8h37q8 0 12 -8l138 -354l120 354q3 8 12 8h65q13 0 9 -12l-174 -485q-3 -8 -12 -8h-37q-9 0 -12 8l-141 362l-145 -362q-3 -8 -12 -8h-37z" />
    <glyph glyph-name="x" unicode="x" horiz-adv-x="518" 
d="M36 0q-6 0 -8 4t2 9l180 249l-167 230q-2 2 -2 6q0 7 9 7h69q9 0 13 -6l129 -180l129 180q5 6 13 6h65q7 0 9 -3.5t-2 -9.5l-167 -231l180 -248q2 -2 2 -6q0 -7 -8 -7h-70q-8 0 -13 7l-142 199l-142 -199q-6 -7 -13 -7h-66z" />
    <glyph glyph-name="y" unicode="y" horiz-adv-x="540" 
d="M154 -218q-5 0 -7.5 3.5t-0.5 8.5l90 223l-209 476q-1 2 -1 5q0 7 9 7h70q9 0 13 -8l159 -382l151 382q4 8 12 8h65q6 0 8 -3.5t0 -8.5l-284 -703q-4 -8 -13 -8h-62z" />
    <glyph glyph-name="z" unicode="z" horiz-adv-x="504" 
d="M63 0q-4 0 -7 3t-3 8v16q0 8 4 13l268 393h-254q-10 0 -10 11v51q0 10 10 10h365q10 0 10 -10v-16q0 -8 -4 -13l-268 -394h266q11 0 11 -10v-51q0 -11 -11 -11h-377z" />
    <glyph glyph-name="braceleft" unicode="{" horiz-adv-x="397" 
d="M356 -150q-101 0 -158.5 49t-57.5 154v173q0 33 -9 45.5t-32 12.5h-32q-11 0 -11 11v51q0 10 11 10h32q23 0 32 13t9 46v173q0 105 57.5 153.5t158.5 48.5h11q10 0 10 -10v-54q0 -11 -10 -11h-6q-72 0 -106.5 -33.5t-34.5 -102.5v-180q0 -65 -41 -78q41 -14 41 -79v-180
q0 -69 34.5 -103t106.5 -34h6q10 0 10 -10v-54q0 -11 -10 -11h-11z" />
    <glyph glyph-name="bar" unicode="|" horiz-adv-x="275" 
d="M108 -110q-4 0 -7 3.5t-3 7.5v839q0 4 3 7t7 3h59q4 0 7.5 -3t3.5 -7v-839q0 -5 -3 -8t-8 -3h-59z" />
    <glyph glyph-name="braceright" unicode="}" horiz-adv-x="397" 
d="M31 -150q-11 0 -11 11v54q0 10 11 10h6q71 0 105.5 34t34.5 103v180q0 65 41 78q-41 14 -41 79v180q0 69 -34 102.5t-106 33.5h-6q-11 0 -11 11v54q0 10 11 10h10q102 0 159 -48.5t57 -153.5v-173q0 -33 9.5 -46t32.5 -13h32q10 0 10 -10v-51q0 -11 -10 -11h-32
q-23 0 -32.5 -12.5t-9.5 -45.5v-173q0 -105 -57.5 -154t-158.5 -49h-10z" />
    <glyph glyph-name="asciitilde" unicode="~" horiz-adv-x="600" 
d="M352.5 222.5q-24.5 11.5 -40 28t-34.5 43.5q-22 31 -39.5 46t-43.5 15q-34 0 -54.5 -30.5t-23.5 -85.5q0 -11 -10 -11h-48q-10 0 -10 11q2 91 39 142t101 51q35 0 59.5 -11.5t40 -28t34.5 -43.5q22 -31 39.5 -46t43.5 -15q34 0 54.5 31t23.5 86q0 10 10 10h48
q10 0 10 -15q-3 -89 -40 -139t-100 -50q-35 0 -59.5 11.5z" />
    <glyph glyph-name="uni00A0" unicode="&#xa0;" horiz-adv-x="223" 
 />
    <glyph glyph-name="cent" unicode="&#xa2;" horiz-adv-x="550" 
d="M268 0q-11 0 -11 11v88q-99 12 -157 83t-58 178t58 177.5t157 82.5v104q0 10 11 10h44q11 0 11 -10v-103q136 -12 184 -137l1 -4q0 -6 -8 -9l-50 -15l-4 -1q-6 0 -9 8q-35 74 -114 83v-373q82 10 117 88q4 9 13 6l54 -14q11 -3 6 -13q-24 -64 -73 -99.5t-117 -42.5v-87
q0 -11 -11 -11h-44zM158 239q34 -51 99 -64v369q-65 -12 -99 -63t-34 -121t34 -121z" />
    <glyph glyph-name="sterling" unicode="&#xa3;" horiz-adv-x="622" 
d="M83 0q-10 0 -10 11v18q0 8 4 13q39 64 54 110t15 108q0 25 -5 58h-67q-10 0 -10 11v44q0 11 10 11h55q-10 47 -15 81t-5 69q0 63 27.5 112t78 75.5t117.5 26.5q88 0 151.5 -46.5t89.5 -130.5l1 -4q0 -7 -9 -9l-59 -16l-4 -1q-6 0 -9 8q-19 57 -60 87t-97 30
q-67 0 -104 -37.5t-37 -108.5q0 -25 4 -50.5t12 -64.5l4 -21h180q11 0 11 -11v-44q0 -11 -11 -11h-168q2 -24 2 -36q0 -56 -11 -101.5t-41 -101.5h375q10 0 10 -10v-58q0 -11 -10 -11h-469z" />
    <glyph glyph-name="currency" unicode="&#xa4;" horiz-adv-x="563" 
d="M45 188q-4 3 -4 7.5t3 7.5l69 70q-31 48 -31 113q0 66 32 113l-70 71q-3 3 -3 7q0 5 4 8l31 29q3 3 7 3q5 0 8 -3l67 -69q49 37 123 37q73 0 124 -37l67 69q3 4 8 4q4 0 7 -4l31 -29q4 -3 4 -7.5t-3 -7.5l-70 -71q32 -47 32 -113t-32 -113l70 -70q3 -3 3 -7q0 -5 -4 -8
l-31 -29q-3 -3 -7 -3q-5 0 -8 3l-66 69q-52 -38 -125 -38t-124 37l-66 -68q-3 -3 -7.5 -3.5t-7.5 3.5zM374 292q36 36 36 94q0 59 -36 95t-93 36t-92.5 -36t-35.5 -95q0 -58 35.5 -94t92.5 -36t93 36z" />
    <glyph glyph-name="yen" unicode="&#xa5;" horiz-adv-x="678" 
d="M132 146q-11 0 -11 10v35q0 10 11 10h166v84h-166q-11 0 -11 10v35q0 10 11 10h134l-239 381q-2 4 -2 6q0 7 9 7h71q9 0 12 -7l223 -365l223 365q3 7 12 7h69q6 0 8.5 -4t-0.5 -9l-240 -381h136q10 0 10 -10v-35q0 -10 -10 -10h-167v-84h167q10 0 10 -10v-35
q0 -10 -10 -10h-167v-135q0 -11 -10 -11h-63q-10 0 -10 11v135h-166z" />
    <glyph glyph-name="section" unicode="&#xa7;" horiz-adv-x="516" 
d="M129 -77q-43 29 -64 89q-1 2 -1 5q0 7 8 9l51 13h2q7 0 11 -7q16 -36 38.5 -52.5t54.5 -16.5q40 0 63.5 22t23.5 56q0 45 -25 93q-20 -2 -33 -2q-58 0 -101.5 24t-67.5 67t-24 98q0 53 22.5 95t63.5 67q-19 31 -28 60t-9 61q0 40 20 73t56.5 52t84.5 19q61 0 104 -29
t64 -89q1 -2 1 -5q0 -7 -8 -9l-51 -13h-3q-8 0 -10 7q-16 36 -38.5 52.5t-54.5 16.5q-40 0 -63.5 -22t-23.5 -56q0 -46 25 -94q19 3 41 3q57 0 101 -24.5t68 -67.5t24 -97q0 -55 -24 -98.5t-68 -66.5q18 -31 26.5 -59t8.5 -59q0 -40 -20 -73t-56.5 -52t-84.5 -19
q-61 0 -104 29zM346 230.5q34 34.5 34 90.5t-34 90.5t-88 34.5t-88 -34.5t-34 -90.5t34 -90.5t88 -34.5t88 34.5z" />
    <glyph glyph-name="copyright" unicode="&#xa9;" horiz-adv-x="863" 
d="M238 34.5q-86 48.5 -134.5 135t-48.5 197.5t48.5 197.5t134.5 135t194 48.5t193.5 -48.5t134 -135t48.5 -197.5t-48.5 -197.5t-134 -135t-193.5 -48.5t-194 48.5zM602.5 80.5q73.5 43.5 113 118.5t39.5 168t-39.5 168.5t-113 118.5t-170.5 43t-170.5 -43.5t-113 -118.5
t-39.5 -168t39.5 -168t113 -118.5t170.5 -43.5t170.5 43.5zM330.5 187.5q-44.5 26.5 -68.5 73t-24 106.5t24.5 107t68.5 73t102 26q60 0 104 -27t64 -79l1 -4q0 -7 -8 -9l-38 -10h-2q-7 0 -11 7q-15 31 -42.5 47t-64.5 16q-64 0 -98 -42.5t-34 -104.5q0 -63 34 -104.5
t99 -41.5q39 0 67 17t42 50q3 10 13 7l40 -12q10 -3 7 -13q-21 -53 -66.5 -81t-105.5 -28q-59 0 -103.5 26.5z" />
    <glyph glyph-name="logicalnot" unicode="&#xac;" horiz-adv-x="600" 
d="M423 137q-12 0 -12 10v181h-343q-11 0 -11 10v56q0 10 11 10h412q10 0 10 -10v-247q0 -10 -10 -10h-57z" />
    <glyph glyph-name="uni00AD" unicode="&#xad;" horiz-adv-x="468" 
d="M87 288q-10 0 -10 10v56q0 10 10 10h294q11 0 11 -10v-56q0 -10 -11 -10h-294z" />
    <glyph glyph-name="registered" unicode="&#xae;" horiz-adv-x="627" 
d="M180 267q-59 33 -92 92t-33 135t33 135.5t92 92.5t134 33t133.5 -33t91.5 -92.5t33 -135.5t-33 -135t-91.5 -92t-133.5 -33t-134 33zM428.5 305q48.5 29 74.5 78.5t26 110.5t-26 111t-74.5 79t-114.5 29t-114.5 -29t-74.5 -79t-26 -111t26 -110.5t74.5 -78.5t114.5 -29
t114.5 29zM239 380q-8 0 -8 8v230q0 8 8 8h73q49 0 72 -21t23 -56q0 -57 -49 -72l52 -87q1 -2 1 -5q0 -5 -6 -5h-27q-6 0 -9 5l-50 85h-49v-82q0 -8 -8 -8h-23zM270 590v-84h41q29 0 42.5 10.5t13.5 32.5q0 41 -56 41h-41z" />
    <glyph glyph-name="degree" unicode="&#xb0;" horiz-adv-x="411" 
d="M99 499.5q-41 40.5 -41 104.5q0 63 41 103.5t107 40.5t106.5 -40.5t40.5 -103.5q0 -64 -40.5 -104.5t-106.5 -40.5t-107 40.5zM270 537q25 25 25 67t-25 67t-64 25q-40 0 -65 -25t-25 -67t25 -67t65 -25q39 0 64 25z" />
    <glyph glyph-name="paragraph" unicode="&#xb6;" horiz-adv-x="587" 
d="M310 -90q-10 0 -10 11v322h-6q-67 0 -122 29t-87.5 84.5t-32.5 132.5t32.5 132.5t87.5 84t122 28.5h182q11 0 11 -10v-803q0 -11 -11 -11h-44q-10 0 -10 11v753h-57v-753q0 -11 -11 -11h-44z" />
    <glyph glyph-name="periodcentered" unicode="&#xb7;" horiz-adv-x="321" 
d="M122.5 292q-16.5 16 -16.5 41t16.5 41t41.5 16t41.5 -16t16.5 -41t-16.5 -41t-41.5 -16t-41.5 16z" />
    <glyph glyph-name="onequarter" unicode="&#xbc;" horiz-adv-x="906" 
d="M204 332q-10 0 -10 10v309l-82 -36q-2 -1 -5 -1q-5 0 -8 6l-7 15q-1 2 -1 5q0 5 4 8l115 83q4 3 11 3h31q10 0 10 -9v-383q0 -10 -10 -10h-48zM212 0q-6 0 -8 4t1 9l458 714q6 7 13 7h58q6 0 8.5 -4t-1.5 -9l-458 -714q-4 -7 -12 -7h-59zM755 0q-10 0 -10 10v73h-198
q-9 0 -9 9v11q0 7 4 12l213 281q5 6 12 6h36q9 0 9 -9v-256h49q10 0 10 -9v-36q0 -4 -3 -6.5t-7 -2.5h-49v-73q0 -10 -9 -10h-48zM617 137h128v169z" />
    <glyph glyph-name="onehalf" unicode="&#xbd;" horiz-adv-x="906" 
d="M204 332q-10 0 -10 10v309l-82 -36q-2 -1 -5 -1q-5 0 -8 6l-7 15q-1 2 -1 5q0 5 4 8l115 83q4 3 11 3h31q10 0 10 -9v-383q0 -10 -10 -10h-48zM179 0q-6 0 -8 4t1 9l458 714q6 7 13 7h58q6 0 8.5 -4t-1.5 -9l-458 -714q-4 -7 -12 -7h-59zM570 0q-4 0 -6.5 3t-2.5 7v11
q0 7 4 11l109 110q57 57 76 90t19 63q0 26 -18.5 41.5t-47.5 15.5q-60 0 -82 -56q-4 -9 -12 -6l-42 9q-9 3 -6 12q16 47 54.5 74t90.5 27q58 0 95.5 -31t37.5 -82q0 -43 -25.5 -84.5t-87.5 -101.5l-56 -55h173q9 0 9 -9v-39q0 -10 -9 -10h-273z" />
    <glyph glyph-name="threequarters" unicode="&#xbe;" horiz-adv-x="906" 
d="M99.5 350.5q-40.5 28.5 -56.5 75.5q-1 2 -1 5q0 6 7 8l37 10q1 1 4 1q7 0 10 -7q12 -27 37 -44t58 -17q37 0 61 19t24 49q0 29 -22.5 47.5t-61.5 18.5h-19q-11 0 -11 11v33q0 10 11 10h19q35 0 55 16t20 42t-20.5 41t-53.5 15q-29 0 -50 -13t-31 -37q-4 -9 -14 -7l-39 9
q-10 3 -7 13q14 43 53.5 69t90.5 26q62 0 100.5 -29.5t38.5 -77.5q0 -30 -17 -55t-47 -38q35 -12 55 -37.5t20 -62.5q0 -54 -44.5 -88t-107.5 -34q-58 0 -98.5 28.5zM227 0q-6 0 -8 4t1 9l458 714q6 7 13 7h58q6 0 8.5 -4t-1.5 -9l-458 -714q-4 -7 -12 -7h-59zM755 0
q-10 0 -10 10v73h-198q-9 0 -9 9v11q0 7 4 12l213 281q5 6 12 6h36q9 0 9 -9v-256h49q10 0 10 -9v-36q0 -4 -3 -6.5t-7 -2.5h-49v-73q0 -10 -9 -10h-48zM617 137h128v169z" />
    <glyph glyph-name="multiply" unicode="&#xd7;" horiz-adv-x="600" 
d="M97 159q-3 3 -3 8t3 8l152 152l-153 152q-3 3 -3 7q0 5 3 9l37 38q3 3 8 3t8 -3l153 -153l151 151q3 3 8 3.5t8 -2.5l35 -36q3 -3 3 -8t-4 -8l-150 -151l152 -152q3 -3 3 -7q0 -5 -3 -8l-37 -38q-3 -3 -8 -3t-9 3l-152 152l-151 -152q-4 -4 -8 -4t-8 4z" />
    <glyph glyph-name="divide" unicode="&#xf7;" horiz-adv-x="600" 
d="M258.5 476q-15.5 15 -15.5 39q0 23 16 38t39 15t39 -15t16 -38q0 -24 -15.5 -39t-39.5 -15t-39.5 15zM78 288q-4 0 -7 3t-3 7v56q0 4 3 7t7 3h444q4 0 7.5 -3t3.5 -7v-56q0 -4 -3.5 -7t-7.5 -3h-444zM258.5 95.5q-15.5 15.5 -15.5 39.5q0 22 16 37t39 15t39 -15t16 -37
q0 -24 -15.5 -39.5t-39.5 -15.5t-39.5 15.5z" />
    <glyph glyph-name="uni0E01" unicode="&#xe01;" horiz-adv-x="615" 
d="M327 555q101 0 154.5 -50.5t53.5 -145.5v-348q0 -11 -11 -11h-60q-5 0 -8 3t-3 8v348q0 60 -34.5 92t-98.5 32h-153v-472q0 -11 -11 -11h-60q-5 0 -8 3t-3 8v534q0 10 10 10h232z" />
    <glyph glyph-name="uni0E02" unicode="&#xe02;" horiz-adv-x="565" 
d="M474 555q11 0 11 -10v-349q0 -98 -54 -152.5t-151 -54.5q-95 0 -149.5 55t-54.5 152v61q0 48 16.5 82t44.5 71q19 24 28 40.5t9 34.5h-107q-10 0 -10 11v49q0 10 10 10h176q11 0 11 -10v-48q0 -26 -11 -49.5t-33 -54.5q-25 -36 -38.5 -65.5t-13.5 -67.5v-56
q0 -67 31.5 -103.5t90.5 -36.5t91 36.5t32 103.5v341q0 10 10 10h61z" />
    <glyph glyph-name="uni0E03" unicode="&#xe03;" horiz-adv-x="574" 
d="M483 555q11 0 11 -10v-349q0 -97 -55 -152t-152 -55q-96 0 -151 55t-55 152v40q0 48 20 83t57 76q24 27 35 44t11 35v21h-17l-43 -51q-4 -6 -13 -6h-50q-8 0 -12 7l-55 98q-2 4 -2 6q0 6 9 6h58q9 0 12 -7l25 -48l38 49q5 6 13 6h100q11 0 11 -10v-71q0 -35 -15 -61.5
t-44 -60.5q-28 -33 -42 -58t-14 -57v-33q0 -67 32.5 -103.5t91.5 -36.5q60 0 92.5 36.5t32.5 103.5v341q0 10 10 10h61z" />
    <glyph glyph-name="uni0E04" unicode="&#xe04;" horiz-adv-x="621" 
d="M90 0q-10 0 -10 11v324q0 106 61.5 168.5t165.5 62.5q107 0 170.5 -62.5t63.5 -168.5v-324q0 -11 -10 -11h-61q-11 0 -11 11v313q0 79 -40 123t-112 44q-70 0 -108.5 -44t-38.5 -123v-43h170q10 0 10 -10v-51q0 -11 -10 -11h-168v-198q0 -11 -10 -11h-62z" />
    <glyph glyph-name="uni0E05" unicode="&#xe05;" horiz-adv-x="635" 
d="M92 0q-10 0 -10 11v364q0 72 37 120.5t107 67.5l91 -52l91 52q70 -18 107.5 -66.5t37.5 -121.5v-364q0 -11 -10 -11h-61q-11 0 -11 11v368q0 43 -17.5 71t-51.5 38l-82 -46h-7l-81 46q-34 -11 -52 -39.5t-18 -69.5v-102h175q11 0 11 -10v-51q0 -11 -11 -11h-173v-194
q0 -11 -10 -11h-62z" />
    <glyph glyph-name="uni0E06" unicode="&#xe06;" horiz-adv-x="619" 
d="M528 555q10 0 10 -10v-343q0 -100 -50 -156.5t-138 -56.5q-64 0 -113.5 27.5t-77.5 78.5l-3 -84q0 -11 -11 -11h-54q-5 0 -8 3t-3 8v235q0 47 20.5 81t57.5 73q22 24 33.5 41t11.5 33v21h-17l-43 -51q-4 -6 -13 -6h-50q-8 0 -12 7l-55 98q-2 4 -2 6q0 6 9 6h58q9 0 12 -7
l25 -48l38 49q5 6 13 6h100q11 0 11 -10v-71q0 -31 -15 -57t-44 -60q-28 -32 -42 -55.5t-14 -54.5v-12q0 -50 22 -89t60 -60.5t84 -21.5q61 0 94.5 40.5t33.5 114.5v326q0 10 11 10h61z" />
    <glyph glyph-name="uni0E07" unicode="&#xe07;" horiz-adv-x="548" 
d="M448 498.5q54 -65.5 54 -177.5q0 -111 -57 -193t-165 -125q-6 -3 -13 -3h-67q-9 0 -12 10l-164 534l-1 3q0 8 10 8h62q9 0 12 -9l142 -473q84 33 126.5 97t42.5 151q0 79 -33 124t-90 45q-31 0 -53 -13q-4 -2 -6 -2q-5 0 -8 6l-21 44q-2 4 -2 7q0 5 5 8q35 24 92 24
q92 0 146 -65.5z" />
    <glyph glyph-name="uni0E08" unicode="&#xe08;" horiz-adv-x="543" 
d="M385.5 535.5q53.5 -30.5 83 -88t29.5 -134.5q0 -95 -44.5 -170.5t-132.5 -137.5q-8 -5 -13 -5h-88q-10 0 -13 9l-72 232h-72q-10 0 -10 10v49q0 11 10 11h127q10 0 13 -9l68 -240q70 50 106.5 111t36.5 138q0 83 -42.5 131.5t-116.5 48.5q-52 0 -92 -24t-59 -65
q-2 -5 -5 -6t-9 0l-53 14q-10 3 -7 14q25 67 86.5 104.5t142.5 37.5q73 0 126.5 -30.5z" />
    <glyph glyph-name="uni0E09" unicode="&#xe09;" horiz-adv-x="585" 
d="M120.5 41.5q-46.5 52.5 -46.5 145.5v106q0 11 11 11h61q10 0 10 -11v-86q0 -68 30.5 -105.5t85.5 -37.5q43 0 77.5 22t54 62t19.5 92v120q0 61 -36 96t-100 35q-50 0 -86 -22t-56 -61q-4 -9 -14 -6l-54 19q-11 4 -7 14q26 61 84.5 96t136.5 35q98 0 156 -57t58 -153v-345
q0 -11 -11 -11h-54q-10 0 -10 11l-4 82q-25 -49 -72.5 -76.5t-104.5 -27.5q-82 0 -128.5 52.5z" />
    <glyph glyph-name="uni0E0A" unicode="&#xe0a;" horiz-adv-x="573" 
d="M511 566q7 0 9.5 -4t-1.5 -9l-97 -142q34 -12 52.5 -44.5t18.5 -81.5v-89q0 -97 -55.5 -152t-153.5 -55t-153 55t-55 152v61q0 48 16.5 82t44.5 71q19 24 28 40.5t9 34.5h-107q-10 0 -10 11v49q0 10 10 10h176q11 0 11 -10v-48q0 -26 -11.5 -50.5t-32.5 -53.5
q-25 -34 -38.5 -64.5t-13.5 -68.5v-56q0 -68 32.5 -104t93.5 -36t94 36t33 104v70q0 37 -16.5 55.5t-48.5 18.5h-49q-11 0 -11 11v48q0 11 11 11h40l92 141q5 7 14 7h68z" />
    <glyph glyph-name="uni0E0B" unicode="&#xe0b;" horiz-adv-x="580" 
d="M518 566q7 0 9.5 -4t-1.5 -9l-97 -142q34 -12 52.5 -44.5t18.5 -81.5v-89q0 -98 -55.5 -152.5t-154.5 -54.5q-98 0 -153.5 55t-55.5 152v40q0 48 20 83t57 76q24 27 35 44t11 35v21h-17l-43 -51q-4 -6 -13 -6h-50q-8 0 -12 7l-55 98q-2 4 -2 6q0 6 9 6h58q9 0 12 -7
l25 -48l38 49q5 6 13 6h100q11 0 11 -10v-71q0 -35 -15 -61.5t-44 -60.5q-28 -33 -42 -58t-14 -57v-33q0 -68 33 -104t94 -36q62 0 95 36t33 104v70q0 37 -16.5 55.5t-48.5 18.5h-49q-11 0 -11 11v48q0 11 11 11h39l93 141q5 7 14 7h68z" />
    <glyph glyph-name="uni0E0C" unicode="&#xe0c;" horiz-adv-x="957" 
d="M866 555q10 0 10 -10v-353q0 -95 -46.5 -149t-128.5 -54q-57 0 -102.5 27.5t-74.5 78.5l-4 -84q0 -11 -10 -11h-54q-11 0 -11 11v348q0 60 -34 92t-98 32h-150v-308q0 -108 79 -108q24 0 45 12q5 3 7 3q4 0 7 -6l21 -45q2 -4 2 -6q0 -4 -4 -8q-31 -24 -87 -24
q-73 0 -112.5 45t-39.5 128v379q0 10 10 10h229q100 0 153.5 -50.5t53.5 -145.5v-117q0 -53 19.5 -93.5t54 -62.5t77.5 -22q55 0 85.5 39.5t30.5 110.5v331q0 10 11 10h61z" />
    <glyph glyph-name="uni0E0D" unicode="&#xe0d;" horiz-adv-x="960" 
d="M866 555q10 0 10 -10v-554q0 -103 -58.5 -162.5t-158.5 -59.5q-75 0 -128 34.5t-76 97.5q-1 2 -1 5q0 5 7 8l52 21q2 1 5 1q5 0 8 -6q20 -43 54 -65.5t81 -22.5q62 0 99 38.5t37 104.5v116q-27 -50 -73.5 -78t-103.5 -28q-82 0 -128.5 52.5t-46.5 144.5v167q0 60 -34 92
t-98 32h-150v-308q0 -53 20 -80.5t59 -27.5q26 0 45 12q5 3 7 3q4 0 7 -6l21 -45q2 -4 2 -7t-4 -7q-31 -24 -87 -24q-73 0 -112.5 45t-39.5 128v379q0 10 10 10h229q100 0 153.5 -50.5t53.5 -145.5v-145q0 -68 30.5 -106t85.5 -38q67 0 109 49.5t42 128.5v297q0 10 11 10h61
z" />
    <glyph glyph-name="uni0E0E" unicode="&#xe0e;" horiz-adv-x="631" 
d="M343 555q100 0 154 -50.5t54 -145.5v-604q0 -10 -11 -10h-70q-7 0 -12 8q-20 37 -56 57.5t-82 20.5q-91 0 -126 -86q-3 -10 -13 -7l-57 18q-11 5 -6 14q21 65 68 99.5t114 34.5q54 0 97.5 -22.5t71.5 -65.5v543q0 60 -34.5 92t-98.5 32h-149v-341q0 -70 -33.5 -108.5
t-94.5 -38.5q-22 0 -33 2q-9 2 -9 11v54q0 9 10 9q6 -1 17 -1q30 0 45.5 20.5t15.5 59.5v395q0 10 10 10h228z" />
    <glyph glyph-name="uni0E0F" unicode="&#xe0f;" horiz-adv-x="631" 
d="M343 555q100 0 154 -50.5t54 -145.5v-489q0 -61 -32.5 -97.5t-87.5 -36.5q-37 0 -64.5 17t-43.5 49q-14 -31 -40.5 -48.5t-60.5 -17.5q-47 0 -79.5 31.5t-44.5 88.5l-1 4q0 6 9 9l56 15l4 1q7 0 8 -9q7 -32 22.5 -49.5t38.5 -17.5q24 0 40.5 18.5t23.5 53.5q1 10 12 10
h23q11 0 12 -10q6 -34 23.5 -53t42.5 -19q27 0 42 19t15 53v478q0 60 -34.5 92t-98.5 32h-149v-341q0 -70 -33.5 -108.5t-94.5 -38.5q-22 0 -33 2q-9 2 -9 11v54q0 9 10 9q6 -1 17 -1q30 0 45.5 20.5t15.5 59.5v395q0 10 10 10h228z" />
    <glyph glyph-name="uni0E10" unicode="&#xe10;" horiz-adv-x="549" 
d="M527 560q11 0 11 -11v-47q0 -11 -11 -11h-113q39 -24 61.5 -72t22.5 -108q0 -95 -44.5 -169.5t-132.5 -136.5q-8 -5 -13 -5h-88q-10 0 -13 9l-72 232h-72q-10 0 -10 10v49q0 11 10 11h127q10 0 13 -9l68 -240q70 50 106.5 111t36.5 138q0 82 -42.5 129t-115.5 47
q-52 0 -92.5 -23t-59.5 -65q-3 -9 -14 -6l-53 14q-11 3 -7 14q25 65 87 102t144 37h266zM477 -60q11 0 11 -11v-28q0 -59 -32 -94.5t-85 -35.5q-35 0 -62.5 17t-42.5 48q-15 -31 -41 -48t-59 -17q-46 0 -78 31t-43 86l-1 4q0 6 9 9l53 14l4 1q5 0 8 -9q6 -31 22.5 -48.5
t38.5 -17.5q23 0 39.5 18.5t23.5 52.5q1 10 11 10h23q10 0 11 -10q6 -33 23.5 -52t42.5 -19q26 0 41 19t15 52v17q0 11 11 11h57z" />
    <glyph glyph-name="uni0E11" unicode="&#xe11;" horiz-adv-x="620" 
d="M502 530q33 -36 33 -101v-418q0 -11 -11 -11h-60q-11 0 -11 11v397q0 41 -18 63t-52 22q-21 0 -40 -11t-45.5 -38.5t-71.5 -82.5q-38 -46 -50.5 -74.5t-12.5 -76.5v-199q0 -11 -11 -11h-61q-10 0 -10 11v198q0 56 16 94.5t56 86.5q28 34 37 50t9 32v23h-17l-43 -51
q-4 -6 -13 -6h-50q-8 0 -12 7l-55 98q-2 4 -2 6q0 6 9 6h58q9 0 12 -7l25 -48l38 49q5 6 13 6h100q11 0 11 -10v-49q34 36 65.5 53t70.5 17q60 0 93 -36z" />
    <glyph glyph-name="uni0E12" unicode="&#xe12;" horiz-adv-x="976" 
d="M120.5 46q-50.5 55 -50.5 151v143q0 90 40 147t116 76l87 -52l88 52q69 -18 107 -67t38 -121v-133q0 -54 20 -94t54 -62t77 -22q55 0 85.5 39.5t30.5 110.5v331q0 10 10 10h61q11 0 11 -10v-353q0 -95 -46.5 -149t-128.5 -54q-58 0 -104 28t-73 78l-4 -84q-1 -11 -11 -11
h-54q-10 0 -10 11v368q0 42 -18 70.5t-52 38.5l-77 -46h-7l-77 46q-40 -13 -60.5 -52.5t-20.5 -103.5v-129q0 -66 30 -102t84 -36q31 0 56 14q6 2 7 2q5 0 7 -5l21 -45q2 -4 2 -7q0 -4 -4 -8q-37 -25 -98 -25q-86 0 -136.5 55z" />
    <glyph glyph-name="uni0E13" unicode="&#xe13;" horiz-adv-x="960" 
d="M866 555q10 0 10 -10v-534q0 -11 -10 -11h-54q-11 0 -11 11l-4 84q-27 -50 -73.5 -78t-103.5 -28q-82 0 -128.5 52.5t-46.5 144.5v173q0 60 -34 92t-98 32h-150v-308q0 -108 79 -108q24 0 45 12q5 3 7 3q4 0 7 -6l21 -45q1 -2 1 -6q0 -5 -3 -8q-31 -24 -87 -24
q-73 0 -112.5 45t-39.5 128v379q0 10 10 10h229q100 0 153.5 -50.5t53.5 -145.5v-151q0 -68 30.5 -106t85.5 -38q67 0 109 49.5t42 128.5v303q0 10 11 10h61z" />
    <glyph glyph-name="uni0E14" unicode="&#xe14;" horiz-adv-x="624" 
d="M119 45.5q-49 54.5 -49 151.5v140q0 69 29 121t82.5 80t124.5 28q72 0 126 -28t83 -80t29 -121v-326q0 -11 -11 -11h-61q-10 0 -10 11v316q0 76 -41.5 120t-114.5 44q-71 0 -112.5 -44t-41.5 -120v-124q0 -66 28.5 -102t82.5 -36q31 0 56 14q3 2 7 2q5 0 7 -5l21 -45
q2 -4 2 -7q0 -4 -4 -8q-35 -25 -98 -25q-86 0 -135 54.5z" />
    <glyph glyph-name="uni0E15" unicode="&#xe15;" horiz-adv-x="635" 
d="M121 46q-51 55 -51 151v143q0 89 40.5 146.5t117.5 76.5l89 -52l90 52q70 -18 108.5 -67.5t38.5 -120.5v-364q0 -11 -11 -11h-61q-10 0 -10 11v368q0 42 -18.5 70.5t-53.5 38.5l-79 -46h-7l-79 46q-40 -13 -61.5 -53t-21.5 -103v-129q0 -66 31 -102t85 -36q31 0 56 14
q6 2 7 2q5 0 7 -5l21 -45q2 -4 2 -7q0 -4 -4 -8q-37 -25 -98 -25q-87 0 -138 55z" />
    <glyph glyph-name="uni0E16" unicode="&#xe16;" horiz-adv-x="617" 
d="M330 555q100 0 153.5 -50.5t53.5 -145.5v-348q0 -11 -11 -11h-60q-11 0 -11 11v348q0 60 -34 92t-98 32h-160v-308q0 -53 20.5 -80.5t60.5 -27.5q24 0 45 12q5 3 7 3q4 0 7 -6l21 -45q2 -4 2 -7t-4 -7q-31 -24 -87 -24q-74 0 -114 45t-40 128v379q0 10 10 10h239z" />
    <glyph glyph-name="uni0E17" unicode="&#xe17;" horiz-adv-x="619" 
d="M94 0q-10 0 -10 11v534q0 10 10 10h54q11 0 11 -10l4 -88q27 52 77 80.5t112 28.5q87 0 136.5 -54.5t49.5 -150.5v-350q0 -11 -10 -11h-61q-11 0 -11 11v326q0 74 -32.5 114t-93.5 40q-47 0 -84.5 -23.5t-58.5 -66.5t-21 -99v-291q0 -11 -11 -11h-61z" />
    <glyph glyph-name="uni0E18" unicode="&#xe18;" horiz-adv-x="538" 
d="M315 343q85 -17 128.5 -61.5t43.5 -114.5q0 -79 -54.5 -123t-150.5 -44h-193q-11 0 -11 11v237q0 11 11 11h61q10 0 10 -11v-180h120q57 0 90 27t33 74q0 43 -29.5 71.5t-86.5 40.5l-215 44q-4 1 -7 4t-3 7v40q0 89 55.5 139.5t153.5 50.5q79 0 133 -34t76 -97q1 -2 1 -5
q0 -6 -8 -8l-55 -10h-3q-7 0 -10 6q-17 38 -51.5 59t-83.5 21q-59 0 -93.5 -31t-34.5 -84v-5z" />
    <glyph glyph-name="uni0E19" unicode="&#xe19;" horiz-adv-x="616" 
d="M129.5 43q-48.5 54 -48.5 151v351q0 10 10 10h61q11 0 11 -10v-327q0 -74 32.5 -114t91.5 -40q46 0 83 23t58.5 66t21.5 101v291q0 10 10 10h61q11 0 11 -10v-534q0 -11 -11 -11h-54q-11 0 -11 11l-3 87q-27 -51 -76.5 -80t-111.5 -29q-87 0 -135.5 54z" />
    <glyph glyph-name="uni0E1A" unicode="&#xe1a;" horiz-adv-x="615" 
d="M140 51.5q-60 62.5 -60 173.5v320q0 10 10 10h61q11 0 11 -10v-310q0 -82 37.5 -126.5t107.5 -44.5t108 44t38 127v310q0 10 10 10h61q11 0 11 -10v-320q0 -110 -60.5 -173t-167.5 -63t-167 62.5z" />
    <glyph glyph-name="uni0E1B" unicode="&#xe1b;" horiz-adv-x="615" 
d="M140 51.5q-60 62.5 -60 173.5v320q0 10 10 10h61q11 0 11 -10v-310q0 -82 37.5 -126.5t107.5 -44.5t108 44t38 127v529q0 10 10 10h61q11 0 11 -10v-539q0 -110 -60.5 -173t-167.5 -63t-167 62.5z" />
    <glyph glyph-name="uni0E1C" unicode="&#xe1c;" horiz-adv-x="646" 
d="M92 0q-10 0 -10 11v379q0 84 38.5 128t111.5 44q54 0 86 -23q8 -6 3 -15l-22 -45q-5 -9 -14 -3q-17 12 -45 12q-40 0 -60 -27t-20 -80v-282l143 180q5 7 13 7h10q8 0 13 -7l144 -180v446q0 10 10 10h58q11 0 11 -10v-534q0 -11 -11 -11h-68q-8 0 -13 7l-149 190
l-149 -190q-5 -7 -13 -7h-67z" />
    <glyph glyph-name="uni0E1D" unicode="&#xe1d;" horiz-adv-x="646" 
d="M92 0q-10 0 -10 11v379q0 84 38.5 128t111.5 44q54 0 86 -23q8 -6 3 -15l-22 -45q-5 -9 -14 -3q-17 12 -45 12q-40 0 -60 -27t-20 -80v-282l143 180q5 7 13 7h10q8 0 13 -7l144 -180v665q0 10 10 10h58q11 0 11 -10v-753q0 -11 -11 -11h-68q-8 0 -13 7l-149 190
l-149 -190q-5 -7 -13 -7h-67z" />
    <glyph glyph-name="uni0E1E" unicode="&#xe1e;" horiz-adv-x="668" 
d="M634 555q11 0 9 -11l-120 -534q-1 -4 -4 -7t-8 -3h-49q-8 0 -12 9l-116 405l-116 -405q-4 -9 -12 -9h-49q-5 0 -8 3t-4 7l-120 534v2q0 9 9 9h61q11 0 12 -9l84 -386l114 386q2 9 11 9h37q9 0 12 -9l114 -384l83 384q3 9 12 9h60z" />
    <glyph glyph-name="uni0E1F" unicode="&#xe1f;" horiz-adv-x="668" 
d="M664 774q12 0 9 -12l-151 -752q-2 -10 -11 -10h-50q-9 0 -12 10l-117 404l-115 -405q-1 -4 -4.5 -6.5t-7.5 -2.5h-49q-5 0 -8 3t-4 7l-119 534v3q0 8 10 8h60q11 0 12 -9l83 -385l112 385q3 9 11 9h37q9 0 12 -9l113 -382l117 601q2 9 11 9h61z" />
    <glyph glyph-name="uni0E20" unicode="&#xe20;" horiz-adv-x="631" 
d="M343 555q100 0 154 -50.5t54 -145.5v-348q0 -11 -11 -11h-61q-10 0 -10 11v348q0 60 -34.5 92t-98.5 32h-149v-341q0 -70 -33.5 -108.5t-94.5 -38.5q-22 0 -33 2q-9 2 -9 11v54q0 9 10 9q6 -1 17 -1q30 0 45.5 20.5t15.5 59.5v395q0 10 10 10h228z" />
    <glyph glyph-name="uni0E21" unicode="&#xe21;" horiz-adv-x="616" 
d="M239.5 18q-49.5 29 -76.5 80l-4 -87q0 -11 -11 -11h-54q-10 0 -10 11v534q0 10 10 10h61q11 0 11 -10v-291q0 -58 21.5 -101t58 -66t82.5 -23q59 0 92 42.5t33 119.5v319q0 10 10 10h61q11 0 11 -10v-343q0 -99 -49.5 -156t-135.5 -57q-61 0 -110.5 29z" />
    <glyph glyph-name="uni0E22" unicode="&#xe22;" horiz-adv-x="589" 
d="M262 0q-94 0 -147 43.5t-53 120.5q0 48 26 84.5t72 50.5q-47 12 -74.5 46t-27.5 82q0 63 43 100t116 37q63 0 105 -27q8 -5 3 -15l-21 -45q-3 -4 -6 -4.5t-8 1.5q-30 17 -64 17q-39 0 -62.5 -20.5t-23.5 -54.5q0 -39 28 -60.5t79 -21.5h78q10 0 10 -10v-48q0 -11 -10 -11
h-64q-55 0 -85.5 -24.5t-30.5 -67.5q0 -49 33 -75t94 -26h141q10 0 10 11v462q0 10 11 10h61q10 0 10 -10v-534q0 -11 -10 -11h-233z" />
    <glyph glyph-name="uni0E23" unicode="&#xe23;" horiz-adv-x="488" 
d="M117 24.5q-53 35.5 -77 107.5q-1 2 -1 5q0 7 8 9l54 12l4 1q6 0 9 -8q36 -90 134 -90q50 0 79 23t29 63q0 72 -102 96l-34 8q-80 19 -120 60.5t-40 103.5q0 70 48.5 110.5t131.5 40.5q146 0 192 -131l1 -4q0 -6 -9 -9l-50 -11h-3q-7 0 -10 7q-16 38 -47 57.5t-74 19.5
q-46 0 -72 -20.5t-26 -55.5q0 -34 26 -56.5t82 -36.5l32 -8q79 -20 118 -61.5t39 -106.5q0 -74 -51.5 -117.5t-139.5 -43.5q-78 0 -131 35.5z" />
    <glyph glyph-name="uni0E24" unicode="&#xe24;" horiz-adv-x="617" 
d="M330 555q100 0 153.5 -50.5t53.5 -145.5v-564q0 -10 -10 -10h-61q-11 0 -11 10v564q0 60 -34 92t-98 32h-160v-308q0 -53 20.5 -80.5t60.5 -27.5q24 0 45 12q5 3 7 3q4 0 7 -6l21 -45q2 -4 2 -7t-4 -7q-31 -24 -87 -24q-74 0 -114 45t-40 128v379q0 10 10 10h239z" />
    <glyph glyph-name="uni0E25" unicode="&#xe25;" horiz-adv-x="582" 
d="M443.5 510q58.5 -56 58.5 -152v-347q0 -11 -10 -11h-61q-11 0 -11 11v247h-94q-185 0 -185 -107q0 -40 26 -63t73 -23q35 0 57 14q6 2 7 2q5 0 7 -5l21 -45q2 -4 2 -7q0 -4 -4 -8q-36 -25 -99 -25q-81 0 -126.5 40.5t-45.5 112.5q0 88 69.5 135.5t198.5 47.5h93v35
q0 61 -37.5 96.5t-100.5 35.5q-49 0 -85 -22t-56 -62q-4 -9 -14 -6l-54 17q-10 3 -7 14q27 61 84.5 96t135.5 35q99 0 157.5 -56z" />
    <glyph glyph-name="uni0E26" unicode="&#xe26;" horiz-adv-x="631" 
d="M343 555q100 0 154 -50.5t54 -145.5v-564q0 -10 -11 -10h-61q-10 0 -10 10v564q0 60 -34.5 92t-98.5 32h-149v-341q0 -70 -33.5 -108.5t-94.5 -38.5q-22 0 -33 2q-9 2 -9 11v54q0 9 10 9q6 -1 17 -1q30 0 45.5 20.5t15.5 59.5v395q0 10 10 10h228z" />
    <glyph glyph-name="uni0E27" unicode="&#xe27;" horiz-adv-x="541" 
d="M125.5 28.5q-55.5 39.5 -79.5 109.5q-1 2 -1 5q0 7 8 9l55 15l5 1q6 0 9 -8q19 -47 54 -72t81 -25q71 0 113 58.5t42 158.5q0 99 -42 155.5t-116 56.5q-49 0 -84 -25.5t-54 -72.5q-2 -5 -5 -6.5t-9 -0.5l-55 14q-11 3 -7 14q24 72 80 111.5t135 39.5q73 0 127.5 -35
t84 -99.5t29.5 -151.5q0 -88 -29 -154t-83 -101.5t-126 -35.5q-77 0 -132.5 39.5z" />
    <glyph glyph-name="uni0E28" unicode="&#xe28;" horiz-adv-x="626" 
d="M592 560q10 0 10 -10v-49q0 -10 -10 -10h-131q39 -20 59.5 -59.5t20.5 -93.5v-327q0 -11 -10 -11h-61q-11 0 -11 11v313q0 76 -40 119.5t-112 43.5q-71 0 -109 -43t-38 -120v-43h170q10 0 10 -10v-51q0 -11 -10 -11h-168v-198q0 -11 -10 -11h-62q-10 0 -10 11v324
q0 105 62 165t167 60h283z" />
    <glyph glyph-name="uni0E29" unicode="&#xe29;" horiz-adv-x="647" 
d="M611 362q11 0 11 -10v-51q0 -11 -11 -11h-64v-64q0 -109 -63.5 -173t-170.5 -64t-170 64t-63 173v319q0 10 10 10h61q11 0 11 -10v-307q0 -82 40 -128t111 -46t111.5 46t40.5 128v52h-154q-11 0 -11 11v51q0 10 11 10h154v183q0 10 11 10h61q10 0 10 -10v-183h64z" />
    <glyph glyph-name="uni0E2A" unicode="&#xe2a;" horiz-adv-x="587" 
d="M553 560q10 0 10 -10v-49q0 -10 -10 -10h-124q35 -19 54 -54.5t19 -82.5v-343q0 -11 -10 -11h-61q-11 0 -11 11v247h-94q-185 0 -185 -107q0 -40 26 -63t73 -23q35 0 57 14q6 2 7 2q5 0 7 -5l21 -45q2 -4 2 -7q0 -4 -4 -8q-36 -25 -99 -25q-81 0 -126.5 40.5t-45.5 112.5
q0 88 69.5 135.5t198.5 47.5h93v33q0 59 -37.5 93.5t-100.5 34.5q-50 0 -85.5 -21.5t-55.5 -60.5q-4 -9 -14 -6l-54 16q-5 1 -7 5t0 9q26 61 83.5 95.5t136.5 34.5h267z" />
    <glyph glyph-name="uni0E2B" unicode="&#xe2b;" horiz-adv-x="592" 
d="M543 12l1 -4q0 -8 -9 -8h-66q-4 0 -8 2t-5 6l-122 279h-167v-276q0 -11 -11 -11h-61q-10 0 -10 11v534q0 10 10 10h60q10 0 10 -10v-186h182q51 0 77.5 26t26.5 76v84q0 10 11 10h60q10 0 10 -10v-90q0 -63 -30 -104t-85 -56z" />
    <glyph glyph-name="uni0E2C" unicode="&#xe2c;" horiz-adv-x="667" 
d="M659 720q6 0 8.5 -4.5t-1.5 -8.5l-109 -153q32 -2 49.5 -19.5t17.5 -46.5q0 -12 -3 -26l-99 -452q-2 -10 -11 -10h-50q-8 0 -12 9l-117 280l-116 -281q-3 -8 -12 -8h-49q-4 0 -7 3t-4 7l-119 534v3q0 8 10 8h60q11 0 12 -9l88 -416l107 253q3 8 11 8h35q8 0 12 -8
l112 -253l67 322q1 3 1 9q0 13 -8.5 20t-23.5 7h-207q-10 0 -10 11v46q0 10 10 10h167l108 157q5 8 13 8h70z" />
    <glyph glyph-name="uni0E2D" unicode="&#xe2d;" horiz-adv-x="580" 
d="M412.5 530.5q58.5 -35.5 90 -100.5t31.5 -152q0 -88 -31 -153t-88.5 -100.5t-134.5 -35.5q-72 0 -125.5 30.5t-82.5 87t-29 132.5v59q0 10 10 10h237q10 0 10 -10v-49q0 -11 -10 -11h-166v-3q0 -78 41.5 -125t111.5 -47q79 0 126 59t47 157t-48 155.5t-131 57.5
q-51 0 -91.5 -24.5t-59.5 -66.5q-2 -5 -5 -6t-9 0l-53 16q-10 3 -7 14q26 66 88 103.5t142 37.5q78 0 136.5 -35.5z" />
    <glyph glyph-name="uni0E2E" unicode="&#xe2e;" horiz-adv-x="585" 
d="M559 560q11 0 11 -11v-47q0 -11 -11 -11h-120q44 -26 69.5 -81t25.5 -132q0 -88 -31 -153t-88.5 -100.5t-134.5 -35.5q-72 0 -125.5 30.5t-82.5 87t-29 132.5v59q0 10 10 10h237q10 0 10 -10v-49q0 -11 -10 -11h-166v-3q0 -78 41.5 -124.5t111.5 -46.5q79 0 126 58.5
t47 156.5q0 96 -48 152t-131 56q-51 0 -91.5 -24t-59.5 -66q-2 -5 -5 -6t-9 0l-53 15q-11 3 -7 14q26 66 87.5 103t142.5 37h283z" />
    <glyph glyph-name="uni0E2F" unicode="&#xe2f;" horiz-adv-x="546" 
d="M441 555q11 0 11 -10v-534q0 -11 -11 -11h-61q-10 0 -10 11v223h-138q-96 0 -150 44.5t-54 124.5q0 75 45.5 118t122.5 43q61 0 97 -25q8 -5 3 -14l-21 -45q-4 -9 -14 -3q-26 13 -56 13q-44 0 -69 -23t-25 -64q0 -47 34 -72t98 -25h128v239q0 10 11 10h59z" />
    <glyph glyph-name="uni0E30" unicode="&#xe30;" horiz-adv-x="358" 
d="M174 332q-59 0 -90 29t-31 84v44q0 11 11 11h59q11 0 11 -11v-33q0 -52 55 -52h104q10 0 10 -11v-51q0 -10 -10 -10h-119zM174 56q-59 0 -90 29.5t-31 84.5v44q0 10 11 10h60q10 0 10 -10v-33q0 -53 55 -53h104q10 0 10 -10v-51q0 -11 -10 -11h-119z" />
    <glyph glyph-name="uni0E31" unicode="&#xe31;" 
d="M-220 636q-55 0 -84.5 27.5t-29.5 79.5v36q0 11 10 11h54q10 0 10 -11v-25q0 -25 13.5 -38t39.5 -13h217q11 0 11 -11v-45q0 -11 -11 -11h-230z" />
    <glyph glyph-name="uni0E32" unicode="&#xe32;" horiz-adv-x="449" 
d="M297 0q-11 0 -11 11v371q0 51 -25.5 80t-70.5 29q-34 0 -58 -17.5t-36 -51.5q-5 -10 -14 -7l-52 15q-4 2 -6 6t-1 8q20 59 65 90.5t107 31.5q80 0 126.5 -50.5t46.5 -136.5v-368q0 -11 -10 -11h-61z" />
    <glyph glyph-name="uni0E33" unicode="&#xe33;" horiz-adv-x="449" 
d="M-194.5 653q-27.5 27 -27.5 69q0 41 27.5 68t70.5 27t70.5 -27t27.5 -68q0 -42 -27.5 -69t-70.5 -27t-70.5 27zM-91 689q13 13 13 33t-13.5 33t-32.5 13q-20 0 -33 -13t-13 -33t13 -33t33 -13t33 13zM297 0q-11 0 -11 11v371q0 51 -25.5 80t-70.5 29q-34 0 -58 -17.5
t-36 -51.5q-5 -10 -14 -7l-52 15q-4 2 -6 6t-1 8q20 59 65 90.5t107 31.5q80 0 126.5 -50.5t46.5 -136.5v-368q0 -11 -10 -11h-61z" />
    <glyph glyph-name="uni0E34" unicode="&#xe34;" 
d="M-489 636q-11 0 -11 11v45q0 11 11 11h399q10 0 10 -10v-20q0 -17 -10 -27t-27 -10h-372z" />
    <glyph glyph-name="uni0E35" unicode="&#xe35;" 
d="M-489 636q-11 0 -11 11v45q0 11 11 11h334v94q0 10 11 10h53q11 0 11 -10v-124q0 -17 -10 -27t-27 -10h-372z" />
    <glyph glyph-name="uni0E36" unicode="&#xe36;" 
d="M-75.5 791.5q26.5 -25.5 26.5 -64.5q0 -40 -26.5 -65.5t-67.5 -25.5h-346q-11 0 -11 11v45q0 11 11 11h258q-3 12 -3 24q0 39 25.5 64.5t65.5 25.5q41 0 67.5 -25.5zM-110.5 695.5q12.5 12.5 12.5 31.5t-12.5 31t-31.5 12t-31.5 -12t-12.5 -31t12.5 -31.5t31.5 -12.5
t31.5 12.5z" />
    <glyph glyph-name="uni0E37" unicode="&#xe37;" 
d="M-91 807q11 0 11 -10v-124q0 -17 -10 -27t-27 -10h-372q-11 0 -11 11v45q0 11 11 11h217v94q0 10 10 10h42q11 0 11 -10v-97h64v97q0 10 10 10h44z" />
    <glyph glyph-name="uni0E38" unicode="&#xe38;" 
d="M-80 -92v-165q0 -10 -11 -10h-55q-10 0 -10 10v109h-67q-11 0 -11 11v45q0 11 11 11h132q11 0 11 -11z" />
    <glyph glyph-name="uni0E39" unicode="&#xe39;" 
d="M-91 -81q11 0 11 -11v-72q0 -57 -35 -89t-98 -32t-97.5 31.5t-34.5 87.5v27h-47q-10 0 -10 10v37q0 11 10 11h104q11 0 11 -11v-64q0 -32 16.5 -50t47.5 -18q30 0 46.5 18t16.5 52v62q0 11 10 11h49z" />
    <glyph glyph-name="uni0E3A" unicode="&#xe3a;" 
d="M-160.5 -170.5q-15.5 15.5 -15.5 39.5q0 23 15.5 38.5t38.5 15.5q24 0 39.5 -15.5t15.5 -38.5q0 -24 -15.5 -39.5t-39.5 -15.5q-23 0 -38.5 15.5z" />
    <glyph glyph-name="uni0E3F" unicode="&#xe3f;" horiz-adv-x="586" 
d="M484.5 91q-53.5 -46 -160.5 -52v-92q0 -10 -10 -10h-45q-10 0 -10 10v91h-168q-11 0 -11 10v638q0 11 11 11h168v86q0 11 10 11h45q10 0 10 -11v-88q90 -7 135 -50t45 -115q0 -57 -28.5 -94.5t-81.5 -50.5q71 -14 107.5 -56t36.5 -109q0 -83 -53.5 -129zM259 635h-98
v-227h98v227zM324 632v-220q51 8 77.5 36.5t26.5 73.5q0 93 -104 110zM161 350v-251h98v251h-98zM324 100q66 7 100 38t34 85q0 110 -134 125v-248z" />
    <glyph glyph-name="uni0E40" unicode="&#xe40;" horiz-adv-x="260" 
d="M104 0q-10 0 -10 11v534q0 10 10 10h61q11 0 11 -10v-534q0 -11 -11 -11h-61z" />
    <glyph glyph-name="uni0E41" unicode="&#xe41;" horiz-adv-x="493" 
d="M104 0q-10 0 -10 11v534q0 10 10 10h61q11 0 11 -10v-534q0 -11 -11 -11h-61zM337 0q-10 0 -10 11v534q0 10 10 10h61q11 0 11 -10v-534q0 -11 -11 -11h-61z" />
    <glyph glyph-name="uni0E42" unicode="&#xe42;" horiz-adv-x="290" 
d="M314 913q10 0 10 -10v-49q0 -11 -10 -11h-181q40 -34 56.5 -76t16.5 -107v-649q0 -11 -11 -11h-61q-10 0 -10 11v644q0 68 -21 111.5t-69 74.5q-7 6 -7 13v17q0 19 11 30.5t30 11.5h246z" />
    <glyph glyph-name="uni0E43" unicode="&#xe43;" horiz-adv-x="297" 
d="M302 656.5q-33 -39.5 -90 -47.5v-598q0 -11 -10 -11h-61q-11 0 -11 11v641q0 11 11 11h29q39 0 62 25.5t23 68.5q0 44 -23.5 69.5t-64.5 25.5q-32 0 -56 -17t-35 -48q-1 -4 -5.5 -6t-8.5 -1l-50 11q-11 3 -8 13q20 58 63.5 89t104.5 31q75 0 119 -45t44 -120
q0 -63 -33 -102.5z" />
    <glyph glyph-name="uni0E44" unicode="&#xe44;" horiz-adv-x="290" 
d="M292 913q10 0 10 -10v-49q0 -7 -6 -13q-48 -31 -69 -74.5t-21 -111.5v-644q0 -11 -11 -11h-61q-10 0 -10 11v643q0 66 17 109t58 80h-183q-11 0 -11 11v49q0 10 11 10h276z" />
    <glyph glyph-name="uni0E45" unicode="&#xe45;" horiz-adv-x="449" 
d="M297 -215q-11 0 -11 10v587q0 51 -25.5 80t-70.5 29q-34 0 -58 -17.5t-36 -51.5q-5 -10 -14 -7l-52 15q-4 2 -6 6t-1 8q20 59 65 90.5t107 31.5q80 0 126.5 -50t46.5 -137v-584q0 -10 -10 -10h-61z" />
    <glyph glyph-name="uni0E46" unicode="&#xe46;" horiz-adv-x="547" 
d="M384 -215q-11 0 -11 10v614q0 69 -53 83l-71 -50h-8l-71 50q-26 -7 -39.5 -28.5t-13.5 -55.5v-140q0 -11 -10 -11h-60q-11 0 -11 11v146q0 63 34 102.5t96 47.5l79 -54l80 54q63 -9 96.5 -47t33.5 -101v-621q0 -10 -11 -10h-60z" />
    <glyph glyph-name="uni0E47" unicode="&#xe47;" 
d="M-337 789q-28 0 -45 -14t-17 -37q0 -22 13 -34.5t36 -12.5q18 0 32 12t26 37q5 8 13 8h26q7 0 11 -7l14 -24q7 -11 17.5 -16t28.5 -5h62q11 0 11 -11v-38q0 -11 -11 -11h-59q-59 0 -83 43l-6 10q-32 -60 -99 -60q-48 0 -77 29t-29 78q0 53 35 84t94 31h224q11 0 11 -10
v-42q0 -10 -11 -10h-217z" />
    <glyph glyph-name="uni0E48" unicode="&#xe48;" 
d="M-149 636q-10 0 -10 11v154q0 11 10 11h56q10 0 10 -11v-154q0 -11 -10 -11h-56z" />
    <glyph glyph-name="uni0E49" unicode="&#xe49;" 
d="M-28 703q10 0 10 -11v-45q0 -11 -10 -11h-243q-10 0 -10 11v96h-63q-11 0 -11 10v44q0 10 11 10h91q21 0 32.5 -11.5t11.5 -33.5v-59h181z" />
    <glyph glyph-name="uni0E4A" unicode="&#xe4a;" 
d="M-53 698q11 0 11 -11v-40q0 -11 -11 -11h-137q-10 0 -10 11v68q0 36 -32 42l-57 -36h-9l-58 36q-30 -6 -30 -42v-68q0 -11 -11 -11h-48q-11 0 -11 11v81q0 40 26.5 66t70.5 30l66 -41l64 41q45 -4 69.5 -29.5t24.5 -66.5v-30h82z" />
    <glyph glyph-name="uni0E4B" unicode="&#xe4b;" 
d="M-5 772q10 0 10 -10v-41q0 -10 -10 -10h-79v-64q0 -11 -10 -11h-52q-10 0 -10 11v64h-79q-10 0 -10 10v41q0 10 10 10h79v65q0 10 10 10h52q10 0 10 -10v-65h79z" />
    <glyph glyph-name="uni0E4C" unicode="&#xe4c;" 
d="M-240 636q-11 0 -11 11v31q0 51 30.5 80.5t84.5 29.5h105q10 0 10 -10v-45q0 -10 -10 -10h-90q-26 0 -40.5 -14t-14.5 -40v-22q0 -11 -11 -11h-53z" />
    <glyph glyph-name="uni0E4D" unicode="&#xe4d;" 
d="M-194.5 653q-27.5 27 -27.5 69q0 41 27.5 68t70.5 27t70.5 -27t27.5 -68q0 -42 -27.5 -69t-70.5 -27t-70.5 27zM-91 689q13 13 13 33t-13.5 33t-32.5 13q-20 0 -33 -13t-13 -33t13 -33t33 -13t33 13z" />
    <glyph glyph-name="uni0E4E" unicode="&#xe4e;" 
d="M-86 829q11 0 11 -11v-28q0 -11 -11 -11h-32q-31 0 -31 -24q0 -11 8 -17t22 -6h11q11 0 11 -10v-19q0 -10 -11 -10h-30q-40 0 -40 -38v-8q0 -11 -11 -11h-53q-11 0 -11 11v12q0 53 53 65q-20 15 -20 41q0 28 23.5 46t60.5 18h50z" />
    <glyph glyph-name="uni0E4F" unicode="&#xe4f;" horiz-adv-x="611" 
d="M171 60q-60 32 -94 88.5t-34 127.5q0 72 34 128.5t94 88.5t135 32t135 -32t93.5 -88.5t33.5 -128.5q0 -71 -33.5 -127.5t-93.5 -88.5t-135 -32t-135 32zM413.5 102q47.5 26 74 71.5t26.5 102.5t-26.5 102.5t-74 71.5t-107.5 26t-107.5 -26t-74.5 -71.5t-27 -102.5
t27 -102.5t74.5 -71.5t107.5 -26t107.5 26zM220.5 190q-33.5 34 -33.5 86t33.5 86t85.5 34q51 0 84.5 -34t33.5 -86t-33.5 -86t-84.5 -34q-52 0 -85.5 34zM356 224.5q20 20.5 20 51.5t-20 52t-50 21q-31 0 -50.5 -20.5t-19.5 -52.5t19.5 -52t50.5 -20q30 0 50 20.5z" />
    <glyph glyph-name="uni0E50" unicode="&#xe50;" horiz-adv-x="616" 
d="M175 22q-59 33 -92.5 91.5t-33.5 132.5t33.5 132.5t92.5 91.5t133 33t133 -33t92.5 -91.5t33.5 -132.5t-33.5 -132.5t-92.5 -91.5t-133 -33t-133 33zM399.5 85.5q40.5 23.5 63 65.5t22.5 95t-22.5 95t-63 65.5t-91.5 23.5t-91.5 -23.5t-63 -65.5t-22.5 -95t22.5 -95
t63 -65.5t91.5 -23.5t91.5 23.5z" />
    <glyph glyph-name="uni0E51" unicode="&#xe51;" horiz-adv-x="602" 
d="M221 -101q-7 0 -10 9l-11 52v2q0 8 10 10q127 24 194 91.5t67 172.5q0 89 -48 141t-131 52q-75 0 -120 -39t-45 -104q0 -53 31 -86t81 -33q35 0 59 14q3 2 7 2q5 0 7 -5l21 -43q2 -4 2 -7q0 -4 -4 -8q-39 -25 -102 -25q-83 0 -133.5 51t-50.5 136q0 66 30.5 116
t86.5 77.5t131 27.5q121 0 190.5 -71.5t69.5 -195.5q0 -137 -84.5 -223.5t-245.5 -113.5h-2z" />
    <glyph glyph-name="uni0E52" unicode="&#xe52;" horiz-adv-x="714" 
d="M145 35q-66 46 -66 151v426q0 11 11 11h59q11 0 11 -11v-416q0 -72 46.5 -103t153.5 -31q104 0 151.5 30t47.5 99v160q0 32 -12.5 52t-35.5 26l-71 -46h-7l-71 46q-23 -6 -36 -26.5t-13 -52.5v-111q0 -11 -10 -11h-55q-10 0 -10 11v115q0 60 33 100t86 47l78 -54l80 54
q56 -8 89.5 -49t33.5 -102v-169q0 -101 -66 -146.5t-211 -45.5q-150 0 -216 46z" />
    <glyph glyph-name="uni0E53" unicode="&#xe53;" horiz-adv-x="692" 
d="M574.5 459.5q37.5 -41.5 37.5 -112.5v-336q0 -11 -10 -11h-60q-10 0 -10 11v330q0 41 -19 64t-53 23q-35 0 -56 -25.5t-21 -69.5v-157q0 -11 -10 -11h-51q-10 0 -10 11v157q0 45 -21.5 70t-58.5 25q-36 0 -55.5 -23t-19.5 -64v-173q0 -51 20 -78t58 -27q25 0 44 12
q5 3 8 3t6 -6l22 -43q2 -4 2 -6q0 -5 -5 -8q-31 -24 -85 -24q-72 0 -111.5 44.5t-39.5 126.5v185q0 70 39.5 112t105.5 42q45 0 78.5 -21.5t48.5 -62.5q16 41 48 62.5t77 21.5q64 0 101.5 -41.5z" />
    <glyph glyph-name="uni0E54" unicode="&#xe54;" horiz-adv-x="585" 
d="M534 71q11 0 11 -10v-50q0 -11 -11 -11h-252q-71 0 -123.5 30t-81 86t-28.5 131q0 113 63.5 179t171.5 66h97q39 0 60 22t21 62v36q0 11 11 11h58q11 0 11 -11v-37q0 -74 -39 -114t-112 -40h-94q-78 0 -122 -47t-44 -130q0 -82 43 -127.5t120 -45.5h34v100q0 56 32 88
t89 32h57q11 0 11 -11v-44q0 -10 -11 -10h-32q-33 0 -51.5 -19.5t-18.5 -54.5v-81h130z" />
    <glyph glyph-name="uni0E55" unicode="&#xe55;" horiz-adv-x="585" 
d="M534 71q11 0 11 -10v-50q0 -11 -11 -11h-252q-71 0 -123.5 30t-81 86t-28.5 131q0 84 37 143t103 82q-23 26 -23 63q0 43 28.5 71t72.5 28q43 0 71 -28t28 -71q0 -23 -9 -43h28q39 0 60 22t21 62v36q0 11 11 11h54q11 0 11 -11v-37q0 -74 -39 -114t-112 -40h-94
q-78 0 -122 -47t-44 -130q0 -82 43 -127.5t120 -45.5h34v100q0 56 32 88t89 32h57q11 0 11 -11v-44q0 -10 -11 -10h-32q-33 0 -51.5 -19.5t-18.5 -54.5v-81h130zM233.5 569q-13.5 -14 -13.5 -34q0 -21 13.5 -34.5t33.5 -13.5q7 0 10 1l9 3q12 5 19 16.5t7 27.5q0 20 -13 34
t-32 14q-20 0 -33.5 -14z" />
    <glyph glyph-name="uni0E56" unicode="&#xe56;" horiz-adv-x="580" 
d="M415.5 471q55.5 -32 85.5 -91t30 -138q0 -76 -31 -133.5t-89 -88.5t-135 -31q-83 0 -140 37.5t-81 106.5l-1 5q0 6 8 9l55 13l5 1q6 0 9 -8q18 -44 54.5 -67.5t89.5 -23.5q80 0 127 48.5t47 131.5q0 86 -48 137t-128 51q-97 0 -142 -75q-5 -7 -13 -7h-46q-5 0 -8 3t-4 7
l-54 253v2q0 10 10 10h59q5 0 8 -3t4 -7l35 -180q29 34 71.5 52t92.5 18q74 0 129.5 -32z" />
    <glyph glyph-name="uni0E57" unicode="&#xe57;" horiz-adv-x="863" 
d="M773 623q11 0 11 -11v-409q0 -99 -49 -151t-142 -52h-69q-10 0 -10 11v332q0 39 -18 62t-48 23q-34 0 -53.5 -25t-19.5 -69v-158q0 -11 -11 -11h-50q-11 0 -11 11v159q0 43 -20.5 68t-55.5 25q-32 0 -51 -23t-19 -63v-174q0 -51 20.5 -78t58.5 -27q25 0 44 12q5 3 8 3
t6 -6l22 -43q2 -4 2 -6q0 -5 -5 -8q-31 -24 -85 -24q-72 0 -112 44.5t-40 126.5v186q0 70 38 111.5t101 41.5q44 0 76.5 -21t47.5 -62q16 41 48 62t74 21q60 0 95.5 -41.5t35.5 -111.5v-279h4q52 0 79.5 34.5t27.5 99.5v409q0 11 11 11h59z" />
    <glyph glyph-name="uni0E58" unicode="&#xe58;" horiz-adv-x="645" 
d="M573 233q5 0 8 -3t3 -7v-91q0 -64 -38.5 -100t-115.5 -40l-102 104h-2l-102 -104q-83 16 -129 80.5t-46 161.5q0 77 30.5 135.5t87 90.5t132.5 32h105q42 0 64 22.5t22 64.5v33q0 11 11 11h58q11 0 11 -11v-33q0 -76 -39 -117t-112 -41h-107q-82 0 -131.5 -52t-49.5 -137
q0 -57 20.5 -99.5t58.5 -64.5l109 110h16l115 -116q55 19 55 78v83q0 4 3 7t8 3h57z" />
    <glyph glyph-name="uni0E59" unicode="&#xe59;" horiz-adv-x="606" 
d="M575 623q10 0 10 -11v-64q0 -61 -32.5 -94t-93.5 -33h-27q-40 0 -40 -31q0 -18 10 -42l126 -336l1 -3q0 -4 -3 -6.5t-7 -2.5h-63q-8 0 -12 9l-126 344q-27 75 -88 75q-34 0 -53.5 -23t-19.5 -63v-174q0 -51 20.5 -78t58.5 -27q25 0 44 12q5 3 8 3t6 -6l22 -43q2 -4 2 -6
q0 -5 -5 -8q-31 -24 -85 -24q-72 0 -112 44.5t-40 126.5v186q0 71 38.5 112t104.5 41q77 0 116 -57q15 48 76 48h26q33 0 51 18t18 51v51q0 11 10 11h59z" />
    <glyph glyph-name="uni0E5A" unicode="&#xe5a;" horiz-adv-x="738" 
d="M441 555q11 0 11 -10v-534q0 -11 -11 -11h-61q-10 0 -10 11v223h-138q-96 0 -150 44.5t-54 124.5q0 75 45.5 118t122.5 43q61 0 97 -25q8 -5 3 -14l-21 -45q-4 -9 -14 -3q-26 13 -56 13q-44 0 -69 -23t-25 -64q0 -47 34 -72t98 -25h128v239q0 10 11 10h59zM633 555
q11 0 11 -10v-534q0 -11 -11 -11h-61q-10 0 -10 11v534q0 10 10 10h61z" />
    <glyph glyph-name="uni0E5B" unicode="&#xe5b;" horiz-adv-x="843" 
d="M819 207q2 -4 2 -6q0 -4 -4 -8q-30 -22 -73 -22q-42 0 -71 24t-51 77l-37 -127q-1 -9 -12 -9h-38q-8 0 -12 8l-51 129q-23 -96 -81.5 -148t-144.5 -52q-93 0 -148 54.5t-55 146.5t52.5 146.5t141.5 54.5q63 0 107 -29q8 -5 3 -15l-19 -40q-6 -8 -15 -3q-28 18 -64 18
q-58 0 -92 -35.5t-34 -94.5q0 -61 35.5 -97.5t95.5 -36.5q77 0 120.5 61.5t51.5 183.5q2 11 11 11h42q9 0 12 -9l60 -163l39 132q3 8 12 8h30q9 0 13 -9q24 -67 45.5 -93.5t50.5 -26.5q25 0 45 13q3 2 7 2q6 0 8 -5z" />
    <glyph glyph-name="uni2000" unicode="&#x2000;" horiz-adv-x="500" 
 />
    <glyph glyph-name="uni2001" unicode="&#x2001;" horiz-adv-x="1000" 
 />
    <glyph glyph-name="uni2002" unicode="&#x2002;" horiz-adv-x="500" 
 />
    <glyph glyph-name="uni2003" unicode="&#x2003;" horiz-adv-x="1000" 
 />
    <glyph glyph-name="uni2004" unicode="&#x2004;" horiz-adv-x="333" 
 />
    <glyph glyph-name="uni2005" unicode="&#x2005;" horiz-adv-x="250" 
 />
    <glyph glyph-name="uni2006" unicode="&#x2006;" horiz-adv-x="167" 
 />
    <glyph glyph-name="uni2007" unicode="&#x2007;" horiz-adv-x="600" 
 />
    <glyph glyph-name="uni2008" unicode="&#x2008;" horiz-adv-x="232" 
 />
    <glyph glyph-name="uni2009" unicode="&#x2009;" horiz-adv-x="200" 
 />
    <glyph glyph-name="uni200A" unicode="&#x200a;" horiz-adv-x="166" 
 />
    <glyph glyph-name="uni200B" unicode="&#x200b;" 
 />
    <glyph glyph-name="uni200C" unicode="&#x200c;" 
 />
    <glyph glyph-name="uni200D" unicode="&#x200d;" 
 />
    <glyph glyph-name="uni2010" unicode="&#x2010;" horiz-adv-x="468" 
d="M87 288q-10 0 -10 10v56q0 10 10 10h294q11 0 11 -10v-56q0 -10 -11 -10h-294z" />
    <glyph glyph-name="uni2011" unicode="&#x2011;" horiz-adv-x="468" 
d="M87 288q-10 0 -10 10v56q0 10 10 10h294q11 0 11 -10v-56q0 -10 -11 -10h-294z" />
    <glyph glyph-name="endash" unicode="&#x2013;" horiz-adv-x="500" 
d="M11 288q-11 0 -11 10v56q0 10 11 10h479q10 0 10 -10v-56q0 -10 -10 -10h-479z" />
    <glyph glyph-name="emdash" unicode="&#x2014;" horiz-adv-x="1000" 
d="M11 288q-11 0 -11 10v56q0 10 11 10h979q10 0 10 -10v-56q0 -10 -10 -10h-979z" />
    <glyph glyph-name="quoteleft" unicode="&#x2018;" horiz-adv-x="232" 
d="M69 508.5q-15 14.5 -15 37.5q0 15 6 35t22 57l39 89q3 7 11 7h30q11 0 8 -11l-42 -127q17 -5 26.5 -18t9.5 -31q0 -23 -15.5 -38t-39.5 -15q-25 0 -40 14.5z" />
    <glyph glyph-name="quoteright" unicode="&#x2019;" horiz-adv-x="232" 
d="M70 505q-5 0 -7 3.5t-1 7.5l42 127q-16 5 -25.5 18.5t-9.5 31.5q0 23 15 37.5t40 14.5q24 0 39.5 -14.5t15.5 -37.5q0 -15 -6 -35t-23 -56l-38 -89q-4 -8 -12 -8h-30z" />
    <glyph glyph-name="quotedblleft" unicode="&#x201c;" horiz-adv-x="389" 
d="M69 508.5q-15 14.5 -15 37.5q0 15 6 35t22 57l39 89q3 7 11 7h30q11 0 8 -11l-42 -127q17 -5 26.5 -18t9.5 -31q0 -23 -15.5 -38t-39.5 -15q-25 0 -40 14.5zM226 508.5q-15 14.5 -15 37.5q0 15 6 35t22 57l39 89q3 7 11 7h30q11 0 8 -11l-42 -127q17 -5 26.5 -18t9.5 -31
q0 -23 -15.5 -38t-39.5 -15q-25 0 -40 14.5z" />
    <glyph glyph-name="quotedblright" unicode="&#x201d;" horiz-adv-x="388" 
d="M70 505q-5 0 -7 3.5t-1 7.5l42 127q-16 5 -25.5 18.5t-9.5 31.5q0 23 15 37.5t40 14.5q24 0 39.5 -14.5t15.5 -37.5q0 -15 -6 -35t-23 -56l-38 -89q-4 -8 -12 -8h-30zM226 505q-5 0 -7 3.5t-1 7.5l42 127q-16 5 -25.5 18.5t-9.5 31.5q0 23 15 37.5t40 14.5
q24 0 39.5 -14.5t15.5 -37.5q0 -15 -6 -35t-23 -56l-38 -89q-4 -8 -12 -8h-30z" />
    <glyph glyph-name="dagger" unicode="&#x2020;" horiz-adv-x="477" 
d="M208 -90q-9 0 -9 10v536h-137q-9 0 -9 9v54q0 9 9 9h137v197q0 9 9 9h61q10 0 10 -9v-197h136q10 0 10 -9v-54q0 -4 -3 -6.5t-7 -2.5h-136v-536q0 -10 -10 -10h-61z" />
    <glyph glyph-name="daggerdbl" unicode="&#x2021;" horiz-adv-x="477" 
d="M62 126q-4 0 -6.5 3t-2.5 7v53q0 10 9 10h137v257h-137q-9 0 -9 9v54q0 9 9 9h137v197q0 9 9 9h61q10 0 10 -9v-197h136q10 0 10 -9v-54q0 -4 -3 -6.5t-7 -2.5h-136v-257h136q10 0 10 -10v-53q0 -10 -10 -10h-136v-206q0 -10 -10 -10h-61q-9 0 -9 10v206h-137z" />
    <glyph glyph-name="bullet" unicode="&#x2022;" horiz-adv-x="404" 
d="M126 232q-32 32 -32 76q0 45 32 77t76 32q45 0 77 -32t32 -77q0 -44 -32 -76t-77 -32q-44 0 -76 32z" />
    <glyph glyph-name="ellipsis" unicode="&#x2026;" horiz-adv-x="1000" 
d="M116.5 6q-16.5 16 -16.5 41t16.5 41t41.5 16t41.5 -16t16.5 -41t-16.5 -41t-41.5 -16t-41.5 16zM458.5 6q-16.5 16 -16.5 41t16.5 41t41.5 16t41.5 -16t16.5 -41t-16.5 -41t-41.5 -16t-41.5 16zM801.5 6q-16.5 16 -16.5 41t16.5 41t41.5 16t41.5 -16t16.5 -41t-16.5 -41
t-41.5 -16t-41.5 16z" />
    <glyph glyph-name="perthousand" unicode="&#x2030;" horiz-adv-x="1302" 
d="M76 378q-45 56 -45 155t45 155t123 56t123 -56t45 -155t-45 -155t-123 -56t-123 56zM195 0q-6 0 -8 4t1 9l458 714q6 7 13 7h58q6 0 8.5 -4t-1.5 -9l-458 -714q-4 -7 -12 -7h-59zM271.5 420.5q25.5 38.5 25.5 112.5t-25.5 112.5t-72.5 38.5t-72 -38.5t-25 -112.5
t25 -112.5t72 -38.5t72.5 38.5zM584 46q-45 56 -45 155t45 155t123 56t123 -56t45 -155t-45 -155t-123 -56t-123 56zM980 46q-45 56 -45 155t45 155t123 56t123 -56t45 -155t-45 -155t-123 -56t-123 56zM779.5 88.5q25.5 38.5 25.5 112.5t-25.5 112.5t-72.5 38.5t-72 -38.5
t-25 -112.5t25 -112.5t72 -38.5t72.5 38.5zM1175.5 88.5q25.5 38.5 25.5 112.5t-25.5 112.5t-72.5 38.5t-72 -38.5t-25 -112.5t25 -112.5t72 -38.5t72.5 38.5z" />
    <glyph glyph-name="fraction" unicode="&#x2044;" horiz-adv-x="110" 
d="M-206 0q-6 0 -8 4t1 9l458 714q6 7 13 7h58q6 0 8.5 -4t-1.5 -9l-458 -714q-4 -7 -12 -7h-59z" />
    <glyph glyph-name="uni2060" unicode="&#x2060;" 
 />
    <glyph glyph-name="Euro" unicode="&#x20ac;" horiz-adv-x="706" 
d="M43 272q-11 0 -11 10v35q0 10 11 10h63q-1 13 -1 40t1 40h-63q-11 0 -11 11v34q0 11 11 11h68q20 136 92 210.5t184 74.5q87 0 150 -43.5t97 -123.5q1 -1 1 -4q0 -7 -7 -10l-59 -18l-4 -1q-6 0 -10 7q-26 55 -67 83t-101 28q-75 0 -123.5 -51.5t-64.5 -151.5h238
q10 0 10 -11v-34q0 -11 -10 -11h-244q-1 -13 -1 -40t1 -40h244q10 0 10 -10v-35q0 -10 -10 -10h-238q15 -100 63.5 -152t124.5 -52q133 0 180 139q4 10 14 7l60 -17q10 -3 7 -14q-32 -92 -100 -144.5t-161 -52.5q-112 0 -184.5 75t-91.5 211h-68z" />
    <glyph glyph-name="trademark" unicode="&#x2122;" horiz-adv-x="945" 
d="M178 330q-10 0 -10 11v321h-134q-11 0 -11 10v52q0 10 11 10h348q10 0 10 -10v-52q0 -10 -10 -10h-134v-321q0 -11 -11 -11h-59zM459 330q-10 0 -10 11v383q0 10 10 10h58q8 0 12 -7l148 -244l146 244q3 7 12 7h56q10 0 10 -10v-383q0 -11 -10 -11h-54q-11 0 -11 11v271
l-120 -198q-3 -7 -12 -7h-41q-8 0 -12 7l-117 192v-265q0 -11 -11 -11h-54z" />
    <glyph glyph-name="minus" unicode="&#x2212;" horiz-adv-x="600" 
d="M78 288q-4 0 -7 3t-3 7v56q0 4 3 7t7 3h444q4 0 7.5 -3t3.5 -7v-56q0 -4 -3.5 -7t-7.5 -3h-444z" />
    <glyph glyph-name="uni263B" unicode="&#x263b;" horiz-adv-x="1000" 
d="M331.5 54q-76.5 45 -122 122t-45.5 167t45.5 167t122.5 122t167 45q91 0 168 -45.5t122.5 -122t45.5 -167.5q0 -90 -45.5 -166.5t-122.5 -121.5t-168 -45t-167.5 45zM420.5 383q10.5 11 10.5 26q0 14 -10.5 25t-24.5 11q-16 0 -27 -10.5t-11 -25.5t11 -26t27 -11
q14 0 24.5 11zM631.5 383q10.5 11 10.5 26t-10.5 25.5t-26.5 10.5q-14 0 -24.5 -11t-10.5 -25q0 -15 10.5 -26t24.5 -11q16 0 26.5 11zM576.5 216q35.5 20 55.5 55q3 5 3 10q0 10 -10 14q-6 2 -9 2q-12 0 -17 -8q-13 -27 -40.5 -42.5t-58.5 -15.5q-30 0 -56 15.5t-43 42.5
q-5 8 -17 8q-8 0 -13 -4.5t-5 -11.5q0 -5 3 -10q23 -35 57.5 -55t73.5 -20q41 0 76.5 20z" />
    <glyph glyph-name="uni2709" unicode="&#x2709;" horiz-adv-x="1000" 
d="M258 76q-33 0 -56 22.5t-23 55.5v381q0 33 23 56.5t56 23.5h484q32 0 54.5 -23.5t22.5 -56.5v-381q0 -32 -22.5 -55t-54.5 -23h-484zM734 500q8 6 8 16q0 6 -4.5 12t-13.5 6q-7 0 -13 -5l-212 -179l-212 179q-7 5 -13 5q-9 0 -13.5 -6t-4.5 -12q0 -10 8 -16l235 -198z
" />
    <glyph glyph-name="uniE001" unicode="&#xe001;" horiz-adv-x="1000" 
d="M306 0q-43 0 -79.5 21.5t-58 58t-21.5 79.5v387q0 43 21.5 79.5t58 58t79.5 21.5h387q43 0 79.5 -21.5t58 -58t21.5 -79.5v-387q0 -43 -21.5 -79.5t-58 -58t-79.5 -21.5h-387zM500 132q24 10 88 54.5t97 81.5q50 58 50 117q0 52 -31.5 96t-85.5 70t-118 26
q-63 0 -117 -26t-86 -70t-32 -96q0 -46 25.5 -86t70.5 -67t100 -35q17 -2 21 -11q1 -2 1 -9q0 -10 -1 -13l-4 -26q0 -10 9 -10q3 0 13 4zM346 325q-4 0 -4 5v102q0 2 1 3.5t3 1.5h17q2 0 3 -1.5t1 -3.5v-81h45q4 0 4 -5v-16q0 -5 -4 -5h-66zM435 325q-5 0 -5 5v102
q0 2 1.5 3.5t3.5 1.5h17q2 0 3.5 -1.5t1.5 -3.5v-102q0 -5 -5 -5h-17zM477 325q-4 0 -4 5v102q0 2 1 3.5t3 1.5h16q3 0 5 -4l46 -62v61q0 2 1 3.5t3 1.5h18q2 0 3 -1.5t1 -3.5v-102q0 -5 -4 -5h-17q-3 0 -5 3l-46 62v-60q0 -5 -4 -5h-17zM591 325q-5 0 -5 5v102q0 2 1.5 3.5
t3.5 1.5h65q2 0 3.5 -1.5t1.5 -3.5v-16q0 -2 -1.5 -4t-3.5 -2h-44v-17h44q5 0 5 -4v-17q0 -4 -5 -4h-44v-17h44q5 0 5 -5v-16q0 -5 -5 -5h-65z" />
    <glyph glyph-name="uniE002" unicode="&#xe002;" horiz-adv-x="1456" 
d="M178 147q-6 0 -11 4.5t-5 10.5v365q0 7 5 11t11 4h60q7 0 11.5 -4t4.5 -11v-289h158q7 0 11.5 -4.5t4.5 -11.5v-60q0 -7 -4.5 -11t-11.5 -4h-234zM494 147q-7 0 -11 4t-4 11v365q0 7 4 11t11 4h59q7 0 11.5 -4t4.5 -11v-365q0 -7 -4.5 -11t-11.5 -4h-59zM642 147
q-7 0 -11.5 4t-4.5 11v365q0 7 4.5 11t11.5 4h57q12 0 18 -9l163 -223v217q0 7 4.5 11t10.5 4h61q6 0 11 -4t5 -11v-365q0 -6 -5 -10.5t-11 -4.5h-59q-12 0 -18 9l-163 223v-217q0 -7 -4 -11t-11 -4h-59zM1044 147q-6 0 -11 4.5t-5 10.5v365q0 7 5 11t11 4h234q6 0 11 -4
t5 -11v-60q0 -6 -5 -10.5t-11 -4.5h-160v-62h160q6 0 11 -4.5t5 -10.5v-61q0 -6 -5 -10.5t-11 -4.5h-160v-61h160q6 0 11 -4.5t5 -11.5v-60q0 -6 -5 -10.5t-11 -4.5h-234z" />
    <glyph glyph-name="uniE003" unicode="&#xe003;" horiz-adv-x="1118" 
d="M85.5 257.5q-35.5 35.5 -35.5 92.5q0 56 35.5 91.5t91.5 35.5t92 -35.5t36 -91.5q0 -57 -36 -92.5t-92 -35.5t-91.5 35.5zM414 237q-4 0 -4 4v217q0 5 4 5h34q4 0 4 -5v-181h109q3 0 3 -4v-32q0 -4 -3 -4h-147zM596 237q-4 0 -4 4v217q0 5 4 5h33q4 0 4 -5v-217
q0 -4 -4 -4h-33zM685 237q-4 0 -4 4v217q0 5 4 5h35q3 0 5 -3l101 -155v153q0 5 4 5h31q4 0 4 -5v-217q0 -4 -4 -4h-34q-3 0 -5 3l-101 156v-155q0 -4 -4 -4h-32zM917 237q-4 0 -4 4v217q0 5 4 5h143q4 0 4 -5v-31q0 -4 -4 -4h-106v-51h96q3 0 3 -4v-31q0 -3 -3 -3h-96v-58
h109q5 0 5 -4v-31q0 -4 -5 -4h-146zM251.5 274.5q28.5 29.5 28.5 75.5q0 45 -28.5 74.5t-74.5 29.5t-74.5 -29.5t-28.5 -74.5q0 -46 28.5 -75.5t74.5 -29.5t74.5 29.5zM129 300q-18 19 -18 50q0 30 18 49t48 19q47 0 60 -37q1 -3 -3 -5l-21 -6q-3 -1 -6 3q-6 9 -12 12.5
t-16 3.5q-17 0 -26 -11t-9 -28t9.5 -28.5t26.5 -11.5q10 0 17.5 4.5t10.5 12.5q1 4 5 3l23 -6q4 -1 3 -5q-6 -19 -23 -28.5t-38 -9.5q-31 0 -49 19z" />
    <glyph glyph-name="ff" unicode="&#xfb00;" horiz-adv-x="695" 
d="M122 0q-11 0 -11 11v422h-84q-11 0 -11 10v52q0 10 11 10h84v66q0 89 45.5 137.5t121.5 48.5q70 0 124 -46q6 -6 1 -15l-20 -41q-2 -4 -6 -5t-9 2q-23 17 -42.5 24t-42.5 7q-47 0 -69.5 -27.5t-22.5 -85.5v-65h242v66q0 89 43 137.5t114 48.5q103 0 149 -99q1 -1 1 -4
q0 -7 -7 -10l-47 -19l-4 -1q-6 0 -10 7q-13 27 -32 39.5t-45 12.5q-82 0 -82 -113v-65h143q11 0 11 -10v-52q0 -10 -11 -10h-143v-422q0 -11 -10 -11h-59q-11 0 -11 11v422h-242v-422q0 -11 -10 -11h-59z" />
    <glyph glyph-name="fi" unicode="&#xfb01;" horiz-adv-x="589" 
d="M119 0q-11 0 -11 11v422h-81q-11 0 -11 10v52q0 10 11 10h81v66q0 89 43.5 137.5t118.5 48.5q71 0 118 -46q7 -8 0 -15l-26 -39q-3 -4 -7 -5t-8 3q-17 15 -33.5 21.5t-38.5 6.5q-87 0 -87 -113v-65h312q10 0 10 -10v-484q0 -11 -10 -11h-59q-11 0 -11 11v422h-242v-422
q0 -11 -10 -11h-59zM432 625.5q-15 14.5 -15 37.5t15 37.5t38 14.5t38.5 -14.5t15.5 -37.5t-15.5 -37.5t-38.5 -14.5t-38 14.5z" />
    <glyph glyph-name="fl" unicode="&#xfb02;" horiz-adv-x="588" 
d="M119 0q-11 0 -11 11v422h-81q-11 0 -11 10v52q0 10 11 10h81v66q0 89 43.5 137.5t118.5 48.5q71 0 118 -46q7 -8 0 -15l-26 -39q-3 -4 -7 -5t-8 3q-17 15 -33.5 21.5t-38.5 6.5q-87 0 -87 -113v-65h143q11 0 11 -10v-52q0 -10 -11 -10h-143v-422q0 -11 -10 -11h-59z
M441 0q-11 0 -11 11v729q0 10 11 10h59q10 0 10 -10v-729q0 -11 -10 -11h-59z" />
    <glyph glyph-name="ffi" unicode="&#xfb03;" horiz-adv-x="914" 
d="M122 0q-11 0 -11 11v422h-84q-11 0 -11 10v52q0 10 11 10h84v66q0 89 46 137.5t121 48.5q70 0 124 -46q6 -6 1 -15l-20 -41q-2 -4 -6 -5t-9 2q-23 17 -42.5 24t-42.5 7q-47 0 -69.5 -27.5t-22.5 -85.5v-65h242v66q0 89 43.5 137.5t118.5 48.5q71 0 118 -46q7 -8 0 -15
l-26 -39q-3 -4 -7 -5t-8 3q-17 15 -33.5 21.5t-38.5 6.5q-87 0 -87 -113v-65h312q10 0 10 -10v-484q0 -11 -10 -11h-59q-11 0 -11 11v422h-242v-422q0 -11 -10 -11h-59q-11 0 -11 11v422h-242v-422q0 -11 -10 -11h-59zM757 625.5q-15 14.5 -15 37.5t15 37.5t38 14.5
t38.5 -14.5t15.5 -37.5t-15.5 -37.5t-38.5 -14.5t-38 14.5z" />
    <glyph glyph-name="ffl" unicode="&#xfb04;" horiz-adv-x="913" 
d="M122 0q-11 0 -11 11v422h-84q-11 0 -11 10v52q0 10 11 10h84v66q0 89 45.5 137.5t121.5 48.5q70 0 124 -46q6 -6 1 -15l-20 -41q-2 -4 -6 -5t-9 2q-23 17 -42.5 24t-42.5 7q-47 0 -69.5 -27.5t-22.5 -85.5v-65h242v66q0 89 43.5 137.5t118.5 48.5q71 0 118 -46
q7 -8 0 -15l-26 -39q-3 -4 -7 -5t-8 3q-17 15 -33.5 21.5t-38.5 6.5q-87 0 -87 -113v-65h143q11 0 11 -10v-52q0 -10 -11 -10h-143v-422q0 -11 -10 -11h-59q-11 0 -11 11v422h-242v-422q0 -11 -10 -11h-59zM766 0q-11 0 -11 11v729q0 10 11 10h59q10 0 10 -10v-729
q0 -11 -10 -11h-59z" />
    <glyph glyph-name="uniFEFF" unicode="&#xfeff;" 
 />
    <glyph glyph-name="u1F3B5" unicode="&#x1f3b5;" horiz-adv-x="1000" 
d="M225.5 63q-27.5 28 -27.5 66q0 40 27.5 68.5t65.5 28.5q23 0 49 -13v323q0 14 9.5 26t22.5 16l313 83q3 1 10 1q17 0 30 -12.5t13 -28.5v-396q0 -40 -28 -68.5t-69 -28.5q-39 0 -66.5 27.5t-27.5 69.5q0 38 28 66t66 28q25 0 50 -13v215l-302 -81v-311q0 -38 -29 -66
t-69 -28q-38 0 -65.5 28z" />
    <glyph glyph-name="u1F464" unicode="&#x1f464;" horiz-adv-x="1000" 
d="M188 91q0 25 12 47.5t33 35.5l174 108q11 7 11 22q0 13 -4.5 23t-5.5 12l-23 43q-3 5 -6.5 12t-8.5 16q-16 10 -24 28t-8 36q0 17 9 35q3 74 45.5 120t108.5 46t108.5 -46t44.5 -120q9 -18 9 -35q0 -18 -8 -36t-24 -28q-5 -9 -8.5 -16t-6.5 -12l-23 -43q-10 -22 -10 -35
q0 -15 11 -22l174 -107q21 -13 33 -36t12 -48v-91h-625v91z" />
    <glyph glyph-name="u1F4AC" unicode="&#x1f4ac;" horiz-adv-x="1000" 
d="M326 39q-53 53 -96 133t-43 170q0 96 39 168.5t110.5 111.5t167.5 39q93 0 162.5 -33.5t107.5 -95t38 -144.5q0 -75 -36.5 -139t-99.5 -101.5t-137 -37.5h-84q-33 0 -56.5 -19t-36.5 -47l-13 -28zM392 346q10 10 10 23q0 15 -9.5 24.5t-23.5 9.5t-23 -9.5t-9 -24.5
q0 -13 9.5 -23t22.5 -10t23 10zM520 346q10 10 10 23q0 15 -10 24.5t-23 9.5q-14 0 -23 -9.5t-9 -24.5q0 -13 9.5 -23t22.5 -10t23 10zM647.5 346q9.5 10 9.5 23q0 15 -9.5 24.5t-22.5 9.5q-15 0 -24 -9.5t-9 -24.5q0 -13 9.5 -23t23.5 -10q13 0 22.5 10z" />
    <glyph glyph-name="u1F4DE" unicode="&#x1f4de;" horiz-adv-x="1000" 
d="M518.5 60q-85.5 46 -170.5 131q-82 82 -130 174t-48 162q0 50 26 77l50 51q20 20 50 20q35 0 57 -25l77 -88q10 -12 10 -26q0 -15 -14 -29l-67 -69q1 -19 30 -59.5t67 -78.5q37 -37 78 -65.5t59 -30.5l68 68q13 13 31 13q15 0 28 -11l87 -78q24 -21 24 -54q0 -30 -20 -50
l-50 -51q-12 -13 -34.5 -20t-49.5 -7q-73 0 -158.5 46z" />
    <glyph glyph-name="u1F4F7" unicode="&#x1f4f7;" horiz-adv-x="1000" 
d="M221 58q-17 0 -29 12.5t-12 29.5v458q0 18 12 30.5t29 12.5h124l32 46q12 18 36 18h172q9 0 18 -4.5t15 -12.5l36 -47h123q17 0 29.5 -12.5t12.5 -30.5v-458q0 -17 -12.5 -29.5t-29.5 -12.5h-556zM568 210.5q32 18.5 50.5 50t18.5 68.5q0 38 -18.5 70t-50.5 50.5
t-69 18.5t-68.5 -18.5t-50 -50.5t-18.5 -70q0 -37 18.5 -68.5t50 -50t68.5 -18.5t69 18.5zM427.5 258q-30.5 30 -30.5 71q0 42 30 72t72 30t72 -29.5t30 -72.5q0 -41 -30 -71t-72 -30q-41 0 -71.5 30z" />
    <glyph glyph-name="u1F508" unicode="&#x1f508;" horiz-adv-x="1000" 
d="M547 21l-177 172h-203q-10 0 -17 6.5t-7 15.5v259q0 10 7 16.5t17 6.5h203l177 172q8 8 19 8q9 0 15.5 -7.5t6.5 -18.5v-614q0 -12 -5.5 -17t-17.5 -5q-10 0 -18 6zM711 163q46 29 72.5 76.5t26.5 102.5q0 109 -99 178l25 40q55 -35 87.5 -94t32.5 -124
q0 -68 -31.5 -125.5t-88.5 -94.5zM653 254q48 34 48 92q0 24 -12.5 45t-35.5 37l26 40q36 -25 52.5 -55.5t16.5 -71.5q0 -37 -18.5 -71t-50.5 -56z" />
    <glyph glyph-name="u1F50D" unicode="&#x1f50d;" horiz-adv-x="1000" 
d="M594 195q-67 -54 -158 -54q-71 0 -131.5 35.5t-96 96t-35.5 131.5t35.5 131.5t96 96t131.5 35.5q72 0 132.5 -35.5t96 -96t35.5 -131.5q0 -89 -55 -158l182 -183l-50 -50zM531.5 238.5q43.5 25.5 69 69.5t25.5 96t-25.5 95.5t-69 69t-95.5 25.5t-95.5 -25.5t-69 -69
t-25.5 -95.5t25.5 -95.5t69 -69.5t95.5 -26t95.5 25.5z" />
    <glyph glyph-name="u1F553" unicode="&#x1f553;" horiz-adv-x="1000" 
d="M331.5 54q-76.5 45 -122 122t-45.5 167t45.5 167t122.5 122t167 45q91 0 168 -45.5t122.5 -122t45.5 -167.5q0 -90 -45.5 -166.5t-122.5 -121.5t-168 -45t-167.5 45zM606 260l17 32l-106 61v173h-36v-194z" />
    <glyph glyph-name="u1F6CD" unicode="&#x1f6cd;" horiz-adv-x="1000" 
d="M226 547q0 17 12.5 29.5t28.5 12.5h102q0 36 17.5 66t47.5 47.5t65 17.5q36 0 66 -17.5t47.5 -47.5t17.5 -66h101q17 0 29.5 -12.5t12.5 -29.5v-368h-547v368zM583 589q0 35 -24.5 59.5t-59.5 24.5q-34 0 -58.5 -24.5t-24.5 -59.5h167zM267 17q-17 0 -29 12.5t-12 30.5
v84h547v-84q0 -18 -12.5 -30.5t-29.5 -12.5h-464z" />
    <glyph glyph-name="uni0E0E.short" horiz-adv-x="631" 
d="M343 555q100 0 154 -50.5t54 -145.5v-564q0 -10 -11 -10h-70q-7 0 -12 8q-20 37 -56 57.5t-82 20.5q-45 0 -77.5 -22t-48.5 -64q-3 -10 -13 -7l-57 18q-11 5 -6 14q21 65 68 99.5t114 34.5q54 0 97.5 -22.5t71.5 -65.5v503q0 60 -34.5 92t-98.5 32h-149v-338
q0 -70 -33.5 -108.5t-94.5 -38.5q-22 0 -33 2q-9 2 -9 11v54q0 9 10 9q6 -1 17 -1q30 0 45.5 20.5t15.5 59.5v392q0 10 10 10h228z" />
    <glyph glyph-name="uni0E0F.short" horiz-adv-x="631" 
d="M343 555q100 0 154 -50.5t54 -145.5v-454q0 -61 -32.5 -97.5t-87.5 -36.5q-37 0 -64.5 17t-43.5 49q-14 -31 -40.5 -48.5t-60.5 -17.5q-47 0 -79.5 31.5t-44.5 88.5l-1 4q0 6 9 9l56 15l4 1q7 0 8 -9q7 -32 22.5 -49.5t38.5 -17.5q24 0 40.5 18.5t23.5 53.5q1 10 12 10
h23q11 0 12 -10q6 -34 23.5 -53t42.5 -19q27 0 42 19t15 53v443q0 60 -34.5 92t-98.5 32h-149v-338q0 -70 -33.5 -108.5t-94.5 -38.5q-22 0 -33 2q-9 2 -9 11v54q0 9 10 9q6 -1 17 -1q30 0 45.5 20.5t15.5 59.5v392q0 10 10 10h228z" />
    <glyph glyph-name="uni0E0D.less" horiz-adv-x="960" 
d="M870 555q10 0 10 -10v-333q0 -102 -58.5 -162.5t-158.5 -60.5t-159 60.5t-59 162.5v147q0 59 -34 91.5t-98 32.5h-150v-308q0 -53 20 -80.5t59 -27.5q26 0 45 12q5 3 7 3q4 0 7 -6l21 -45q2 -4 2 -6q0 -4 -4 -8q-31 -24 -87 -24q-73 0 -112.5 45t-39.5 128v379
q0 10 10 10h229q100 0 153.5 -50.5t53.5 -145.5v-133q0 -76 36 -119t100 -43q63 0 99 43t36 119v319q0 10 11 10h61z" />
    <glyph glyph-name="uni0E0D_uni005F" horiz-adv-x="960" 
d="M870 555q10 0 10 -10v-333q0 -102 -58.5 -162.5t-158.5 -60.5t-159 60.5t-59 162.5v147q0 59 -34 91.5t-98 32.5h-150v-308q0 -53 20 -80.5t59 -27.5q26 0 45 12q5 3 7 3q4 0 7 -6l21 -45q2 -4 2 -6q0 -4 -4 -8q-31 -24 -87 -24q-73 0 -112.5 45t-39.5 128v379
q0 10 10 10h229q100 0 153.5 -50.5t53.5 -145.5v-133q0 -76 36 -119t100 -43q63 0 99 43t36 119v319q0 10 11 10h61zM870 -73q4 0 7 -3t3 -7v-56q0 -4 -3 -7t-7 -3h-779q-3 0 -6 3t-3 7v56q0 4 3 7t6 3h779z" />
    <glyph glyph-name="uni0E19_uni005F" horiz-adv-x="616" 
d="M129.5 43q-48.5 54 -48.5 151v351q0 10 10 10h61q11 0 11 -10v-327q0 -74 32.5 -114t91.5 -40q46 0 83 23t58.5 66t21.5 101v291q0 10 10 10h61q11 0 11 -10v-534q0 -11 -11 -11h-54q-11 0 -11 11l-3 87q-27 -51 -76.5 -80t-111.5 -29q-87 0 -135.5 54zM90 -149
q-3 0 -6 3t-3 7v56q0 4 3 7t6 3h430q4 0 7.5 -3t3.5 -7v-56q0 -4 -3.5 -7t-7.5 -3h-430z" />
    <glyph glyph-name="uni0E21_uni005F" horiz-adv-x="616" 
d="M239.5 18q-49.5 29 -76.5 80l-4 -87q0 -11 -11 -11h-54q-10 0 -10 11v534q0 10 10 10h61q11 0 11 -10v-291q0 -58 21.5 -101t58 -66t82.5 -23q59 0 92 42.5t33 119.5v319q0 10 10 10h61q11 0 11 -10v-343q0 -99 -49.5 -156t-135.5 -57q-61 0 -110.5 29zM95 -149
q-4 0 -7 3t-3 7v56q0 4 3 7t7 3h430q4 0 7.5 -3t3.5 -7v-56q0 -4 -3.5 -7t-7.5 -3h-430z" />
    <glyph glyph-name="uni0E10.less" horiz-adv-x="549" 
d="M527 560q11 0 11 -11v-47q0 -11 -11 -11h-113q39 -24 61.5 -72t22.5 -108q0 -95 -44.5 -169.5t-132.5 -136.5q-8 -5 -13 -5h-88q-10 0 -13 9l-72 232h-72q-10 0 -10 10v49q0 11 10 11h127q10 0 13 -9l68 -240q70 50 106.5 111t36.5 138q0 82 -42.5 129t-115.5 47
q-52 0 -92.5 -23t-59.5 -65q-3 -9 -14 -6l-53 14q-11 3 -7 14q25 65 87 102t144 37h266z" />
    <glyph glyph-name="uni0E07_uni005F" horiz-adv-x="548" 
d="M200 0q-9 0 -12 10l-164 534l-1 3q0 8 10 8h62q9 0 12 -9l142 -473q84 33 126.5 97t42.5 151q0 79 -33 124t-90 45q-31 0 -53 -13q-4 -2 -6 -2q-5 0 -8 6l-21 44q-2 4 -2 7q0 5 5 8q35 24 92 24q92 0 146 -65.5t54 -177.5q0 -111 -57 -193t-165 -125q-6 -3 -13 -3h-67z
M470 -73q5 0 8 -3.5t3 -7.5v-54q0 -5 -3 -8t-8 -3h-399q-3 0 -6.5 3.5t-3.5 7.5v54q0 4 3.5 7.5t6.5 3.5h399z" />
    <glyph glyph-name="uni0E2C.short" horiz-adv-x="667" 
d="M659 720q6 0 8.5 -4.5t-1.5 -8.5l-109 -153q32 -2 49.5 -19.5t17.5 -46.5q0 -12 -3 -26l-99 -452q-2 -10 -11 -10h-50q-8 0 -12 9l-117 280l-116 -281q-3 -8 -12 -8h-49q-4 0 -7 3t-4 7l-119 534v3q0 8 10 8h60q11 0 12 -9l88 -416l107 253q3 8 11 8h35q8 0 12 -8
l112 -253l67 322q1 3 1 9q0 13 -8.5 20t-23.5 7h-207q-10 0 -10 11v46q0 10 10 10h167l108 157q5 8 13 8h70z" />
    <glyph glyph-name="uni0E31.narrow" 
d="M-444 636q-55 0 -84.5 27.5t-29.5 79.5v36q0 11 10 11h54q10 0 10 -11v-25q0 -25 13.5 -38t39.5 -13h198q10 0 10 -11v-45q0 -11 -10 -11h-211z" />
    <glyph glyph-name="uni0E48.narrow" 
d="M-336 636q-11 0 -11 11v154q0 11 11 11h55q11 0 11 -11v-154q0 -11 -11 -11h-55z" />
    <glyph glyph-name="uni0E49.narrow" 
d="M-234 703q10 0 10 -11v-45q0 -11 -10 -11h-229q-10 0 -10 11v96h-63q-11 0 -11 10v44q0 10 11 10h91q21 0 32.5 -11.5t11.5 -33.5v-59h167z" />
    <glyph glyph-name="uni0E4A.narrow" 
d="M-215 698q11 0 11 -11v-40q0 -11 -11 -11h-118q-10 0 -10 11v69q0 17 -7.5 28t-21.5 14l-48 -34h-9l-48 34q-14 -3 -21.5 -14t-7.5 -28v-69q0 -11 -11 -11h-46q-11 0 -11 11v81q0 42 24.5 67t68.5 29l56 -39l56 39q44 -5 67.5 -29.5t23.5 -66.5v-30h63z" />
    <glyph glyph-name="uni0E4B.narrow" 
d="M-241 772q10 0 10 -10v-41q0 -10 -10 -10h-79v-64q0 -11 -10 -11h-52q-10 0 -10 11v64h-79q-10 0 -10 10v41q0 10 10 10h79v65q0 10 10 10h52q10 0 10 -10v-65h79z" />
    <glyph glyph-name="uni0E4C.narrow" 
d="M-441 636q-11 0 -11 11v31q0 51 30.5 80.5t84.5 29.5h100q10 0 10 -10v-45q0 -10 -10 -10h-85q-26 0 -40.5 -14t-14.5 -40v-22q0 -11 -11 -11h-53z" />
    <glyph glyph-name="uni0E47.narrow" 
d="M-451 789q-27 0 -43 -14t-16 -37q0 -21 12.5 -34t34.5 -13q34 0 57 49q5 8 13 8h26q7 0 11 -7l14 -24q7 -11 17.5 -16t28.5 -5h52q11 0 11 -11v-38q0 -11 -11 -11h-49q-59 0 -83 43l-5 10q-32 -60 -98 -60q-48 0 -76.5 29t-28.5 78q0 53 34 84t92 31h214q11 0 11 -10v-42
q0 -10 -11 -10h-207z" />
    <glyph glyph-name="uni0E34.narrow" 
d="M-587 636q-10 0 -10 11v45q0 11 10 11h344q10 0 10 -10v-20q0 -17 -10 -27t-27 -10h-317z" />
    <glyph glyph-name="uni0E35.narrow" 
d="M-587 636q-10 0 -10 11v45q0 11 10 11h279v94q0 10 11 10h53q11 0 11 -10v-124q0 -17 -10 -27t-27 -10h-317z" />
    <glyph glyph-name="uni0E36.narrow" 
d="M-239.5 791.5q26.5 -25.5 26.5 -64.5q0 -40 -26.5 -65.5t-67.5 -25.5h-280q-10 0 -10 11v45q0 11 10 11h192q-3 12 -3 24q0 39 25.5 64.5t65.5 25.5q41 0 67.5 -25.5zM-274.5 695.5q12.5 12.5 12.5 31.5t-12.5 31t-31.5 12t-31.5 -12t-12.5 -31t12.5 -31.5t31.5 -12.5
t31.5 12.5z" />
    <glyph glyph-name="uni0E37.narrow" 
d="M-244 807q11 0 11 -10v-124q0 -17 -10 -27t-27 -10h-317q-10 0 -10 11v45q0 11 10 11h176v94q0 10 10 10h39q10 0 10 -10v-97h57v97q0 10 11 10h40z" />
    <glyph glyph-name="uni0E4D0E48" 
d="M-194.5 653q-27.5 27 -27.5 69q0 41 27.5 68t70.5 27t70.5 -27t27.5 -68q0 -42 -27.5 -69t-70.5 -27t-70.5 27zM-91 689q13 13 13 33t-13.5 33t-32.5 13q-20 0 -33 -13t-13 -33t13 -33t33 -13t33 13zM-150 873q-10 0 -10 10v136q0 11 10 11h51q11 0 11 -11v-136
q0 -10 -11 -10h-51z" />
    <glyph glyph-name="uni0E4D0E49" 
d="M-194.5 653q-27.5 27 -27.5 69q0 41 27.5 68t70.5 27t70.5 -27t27.5 -68q0 -42 -27.5 -69t-70.5 -27t-70.5 27zM-91 689q13 13 13 33t-13.5 33t-32.5 13q-20 0 -33 -13t-13 -33t13 -33t33 -13t33 13zM-12 934q10 0 10 -11v-40q0 -10 -10 -10h-218q-11 0 -11 10v84h-56
q-10 0 -10 11v38q0 10 10 10h81q20 0 31 -11t11 -31v-50h162z" />
    <glyph glyph-name="uni0E4D0E4A" 
d="M-194.5 653q-27.5 27 -27.5 69q0 41 27.5 68t70.5 27t70.5 -27t27.5 -68q0 -42 -27.5 -69t-70.5 -27t-70.5 27zM-91 689q13 13 13 33t-13.5 33t-32.5 13q-20 0 -33 -13t-13 -33t13 -33t33 -13t33 13zM24 929q10 0 10 -11v-35q0 -10 -10 -10h-101q-11 0 -11 10v61
q0 33 -26 38l-49 -30h-8l-49 30q-26 -5 -26 -38v-61q0 -10 -11 -10h-41q-10 0 -10 10v72q0 38 22 61t63 27l56 -36l56 36q40 -4 61.5 -27t21.5 -61v-26h52z" />
    <glyph glyph-name="uni0E4D0E4B" 
d="M-194.5 653q-27.5 27 -27.5 69q0 41 27.5 68t70.5 27t70.5 -27t27.5 -68q0 -42 -27.5 -69t-70.5 -27t-70.5 27zM-91 689q13 13 13 33t-13.5 33t-32.5 13q-20 0 -33 -13t-13 -33t13 -33t33 -13t33 13zM-30 989q11 0 11 -11v-33q0 -10 -11 -10h-61v-52q0 -10 -10 -10h-46
q-11 0 -11 10v52h-62q-10 0 -10 10v33q0 11 10 11h62v51q0 11 11 11h46q10 0 10 -11v-51h61z" />
    <glyph glyph-name="uni0E4D.narrow" 
d="M-421.5 653q-27.5 27 -27.5 69q0 41 27.5 68t70.5 27t70.5 -27t27.5 -68q0 -42 -27.5 -69t-70.5 -27t-70.5 27zM-318 689q13 13 13 33t-13.5 33t-32.5 13q-20 0 -33 -13t-13 -33t13 -33t33 -13t33 13z" />
    <glyph glyph-name="uni0E4D0E48.narrow" 
d="M-421.5 653q-27.5 27 -27.5 69q0 41 27.5 68t70.5 27t70.5 -27t27.5 -68q0 -42 -27.5 -69t-70.5 -27t-70.5 27zM-318 689q13 13 13 33t-13.5 33t-32.5 13q-20 0 -33 -13t-13 -33t13 -33t33 -13t33 13zM-377 873q-10 0 -10 10v136q0 11 10 11h51q11 0 11 -11v-136
q0 -10 -11 -10h-51z" />
    <glyph glyph-name="uni0E4D0E49.narrow" 
d="M-421.5 653q-27.5 27 -27.5 69q0 41 27.5 68t70.5 27t70.5 -27t27.5 -68q0 -42 -27.5 -69t-70.5 -27t-70.5 27zM-318 689q13 13 13 33t-13.5 33t-32.5 13q-20 0 -33 -13t-13 -33t13 -33t33 -13t33 13zM-239 934q10 0 10 -11v-40q0 -10 -10 -10h-218q-11 0 -11 10v84h-56
q-10 0 -10 11v38q0 10 10 10h81q20 0 31 -11t11 -31v-50h162z" />
    <glyph glyph-name="uni0E4D0E4A.narrow" 
d="M-421.5 653q-27.5 27 -27.5 69q0 41 27.5 68t70.5 27t70.5 -27t27.5 -68q0 -42 -27.5 -69t-70.5 -27t-70.5 27zM-318 689q13 13 13 33t-13.5 33t-32.5 13q-20 0 -33 -13t-13 -33t13 -33t33 -13t33 13zM-203 929q10 0 10 -11v-35q0 -10 -10 -10h-101q-11 0 -11 10v61
q0 33 -26 38l-49 -30h-8l-49 30q-26 -5 -26 -38v-61q0 -10 -11 -10h-41q-10 0 -10 10v72q0 38 22 61t63 27l56 -36l56 36q40 -4 61.5 -27t21.5 -61v-26h52z" />
    <glyph glyph-name="uni0E4D0E4B.narrow" 
d="M-421.5 653q-27.5 27 -27.5 69q0 41 27.5 68t70.5 27t70.5 -27t27.5 -68q0 -42 -27.5 -69t-70.5 -27t-70.5 27zM-318 689q13 13 13 33t-13.5 33t-32.5 13q-20 0 -33 -13t-13 -33t13 -33t33 -13t33 13zM-257 989q11 0 11 -11v-33q0 -10 -11 -10h-61v-52q0 -10 -10 -10h-46
q-11 0 -11 10v52h-62q-10 0 -10 10v33q0 11 10 11h62v51q0 11 11 11h46q10 0 10 -11v-51h61z" />
    <glyph glyph-name="uni0E48.small" 
d="M-144 873q-10 0 -10 10v136q0 11 10 11h51q11 0 11 -11v-136q0 -10 -11 -10h-51z" />
    <glyph glyph-name="uni0E49.small" 
d="M-8 934q10 0 10 -11v-40q0 -10 -10 -10h-218q-11 0 -11 10v84h-56q-10 0 -10 11v38q0 10 10 10h81q20 0 31 -11t11 -31v-50h162z" />
    <glyph glyph-name="uni0E4A.small" 
d="M8 929q10 0 10 -11v-35q0 -10 -10 -10h-101q-11 0 -11 10v61q0 33 -26 38l-49 -30h-8l-49 30q-26 -5 -26 -38v-61q0 -10 -11 -10h-41q-10 0 -10 10v72q0 38 22 61t63 27l56 -36l56 36q40 -4 61.5 -27t21.5 -61v-26h52z" />
    <glyph glyph-name="uni0E4B.small" 
d="M-24 989q11 0 11 -11v-33q0 -10 -11 -10h-61v-52q0 -10 -10 -10h-46q-11 0 -11 10v52h-62q-10 0 -10 10v33q0 11 10 11h62v51q0 11 11 11h46q10 0 10 -11v-51h61z" />
    <glyph glyph-name="uni0E4C.small" 
d="M-228 873q-11 0 -11 11v27q0 48 27.5 74t76.5 26h95q11 0 11 -11v-40q0 -10 -11 -10h-79q-50 0 -50 -49v-17q0 -11 -11 -11h-48z" />
    <glyph glyph-name="uni0E47.small" 
d="M-300 1013q-25 0 -40 -12.5t-15 -34.5q0 -20 11.5 -31.5t30.5 -11.5q31 0 55 47q3 8 12 8h23q6 0 11 -7q12 -22 27 -32.5t35 -10.5h41q10 0 10 -11v-34q0 -10 -10 -10h-38q-29 0 -50.5 12t-38.5 39q-15 -28 -38 -43t-53 -15q-44 0 -70 26.5t-26 71.5q0 49 31.5 77.5
t85.5 28.5h197q10 0 10 -10v-37q0 -10 -10 -10h-191z" />
    <glyph glyph-name="uni0E38.small" 
d="M-79 -277v-123q0 -10 -11 -10h-51q-11 0 -11 10v77h-57q-10 0 -10 10v36q0 11 10 11h119q11 0 11 -11z" />
    <glyph glyph-name="uni0E39.small" 
d="M-90 -266q11 0 11 -11v-49q0 -40 -31.5 -64.5t-90.5 -24.5q-57 0 -87.5 24t-30.5 63v5h-45q-10 0 -10 10v36q0 11 10 11h95q10 0 10 -11v-39q0 -20 15.5 -32.5t42.5 -12.5t42 12t15 33v39q0 11 11 11h43z" />
    <glyph glyph-name="uni0E3A.small" 
d="M-155.5 -344.5q-13.5 13.5 -13.5 34.5t13.5 34.5t34.5 13.5t34.5 -13.5t13.5 -34.5t-13.5 -34.5t-34.5 -13.5t-34.5 13.5z" />
    <glyph glyph-name="j.alt" horiz-adv-x="236" 
d="M80 625.5q-15 14.5 -15 37.5t15 37.5t38 14.5t38.5 -15t15.5 -37t-15.5 -37t-38.5 -15t-38 14.5zM-76 -205q-6 6 -2 15l21 44q3 6 6 6q4 0 8 -3q20 -12 45 -12q37 0 56.5 27.5t19.5 83.5v539q0 10 11 10h59q10 0 10 -10v-541q0 -87 -42 -135t-109 -48q-52 0 -83 24z" />
    <glyph glyph-name="j.alt2" horiz-adv-x="236" 
d="M80 625.5q-15 14.5 -15 37.5t15 37.5t38 14.5t38.5 -14.5t15.5 -37.5t-15.5 -37.5t-38.5 -14.5t-38 14.5zM-34 -226q-10 2 -10 12v51q0 10 11 9h18q52 0 72.5 27t20.5 85v537q0 10 11 10h59q10 0 10 -10v-537q0 -186 -154 -186q-26 0 -38 2z" />
    <glyph glyph-name="uni0E40.ss01" horiz-adv-x="276" 
d="M121 32q-32 37 -32 110v403q0 10 11 10h61q10 0 10 -10v-394q0 -41 15.5 -62t45.5 -21q11 0 18 1h3q8 0 8 -10v-50q0 -10 -10 -12q-9 -2 -36 -2q-62 0 -94 37z" />
    <glyph glyph-name="uni0E41.ss01" horiz-adv-x="534" 
d="M121 32q-32 37 -32 110v403q0 10 11 10h61q10 0 10 -10v-394q0 -41 15.5 -62t45.5 -21q11 0 18 1h3q8 0 8 -10v-50q0 -10 -10 -12q-9 -2 -36 -2q-62 0 -94 37zM379 32q-32 37 -32 110v403q0 10 11 10h61q10 0 10 -10v-394q0 -41 15.5 -62t45.5 -21q11 0 18 1h3q8 0 8 -10
v-50q0 -10 -10 -12q-9 -2 -36 -2q-62 0 -94 37z" />
    <glyph glyph-name="uni0E42.ss01" horiz-adv-x="311" 
d="M314 913q10 0 10 -10v-49q0 -11 -10 -11h-181q39 -34 56 -76t17 -107v-509q0 -83 61 -83q11 0 17 1h3q8 0 8 -10v-50q0 -11 -10 -12q-8 -2 -35 -2q-62 0 -94 37t-32 110v513q0 68 -21 111.5t-69 74.5q-7 6 -7 13v17q0 19 11 30.5t30 11.5h246z" />
    <glyph glyph-name="uni0E43.ss01" horiz-adv-x="317" 
d="M294 69q8 0 8 -10v-50q0 -10 -10 -12q-9 -2 -36 -2q-62 0 -94 37t-32 110v510q0 11 11 11h29q39 0 62 25.5t23 68.5q0 44 -23.5 69.5t-64.5 25.5q-32 0 -56 -17t-35 -48q-1 -4 -5.5 -6t-8.5 -1l-50 11q-11 3 -8 13q20 58 63.5 89t104.5 31q75 0 119 -45t44 -120
q0 -63 -33 -102.5t-90 -47.5v-458q0 -41 15.5 -62t45.5 -21q11 0 18 1h3z" />
    <glyph glyph-name="uni0E44.ss01" horiz-adv-x="311" 
d="M292 913q10 0 10 -11v-48q0 -7 -6 -13q-48 -31 -69 -74.5t-21 -111.5v-504q0 -83 61 -83q11 0 17 1h3q8 0 8 -10v-50q0 -11 -10 -12q-8 -2 -35 -2q-62 0 -94 37t-32 110v512q0 66 17 109t58 80h-183q-11 0 -11 11v48q0 11 11 11h276z" />
    <glyph glyph-name="zero.dnom" horiz-adv-x="398" 
d="M76 46q-45 56 -45 155t45 155t123 56t123 -56t45 -155t-45 -155t-123 -56t-123 56zM271.5 88.5q25.5 38.5 25.5 112.5t-25.5 112.5t-72.5 38.5t-72 -38.5t-25 -112.5t25 -112.5t72 -38.5t72.5 38.5z" />
    <glyph glyph-name="one.dnom" horiz-adv-x="398" 
d="M204 0q-10 0 -10 10v309l-82 -36q-2 -1 -5 -1q-5 0 -8 6l-7 15q-1 2 -1 5q0 5 4 8l115 83q4 3 11 3h31q10 0 10 -9v-383q0 -10 -10 -10h-48z" />
    <glyph glyph-name="two.dnom" horiz-adv-x="398" 
d="M62 0q-4 0 -6.5 3t-2.5 7v11q0 7 4 11l109 110q57 57 76 90t19 63q0 26 -18.5 41.5t-47.5 15.5q-60 0 -82 -56q-4 -9 -12 -6l-42 9q-9 3 -6 12q16 47 54.5 74t90.5 27q58 0 95.5 -31t37.5 -82q0 -43 -25.5 -84.5t-87.5 -101.5l-56 -55h173q9 0 9 -9v-39q0 -10 -9 -10
h-273z" />
    <glyph glyph-name="three.dnom" horiz-adv-x="398" 
d="M99.5 18.5q-40.5 28.5 -56.5 75.5q-1 2 -1 5q0 6 7 8l37 10q1 1 4 1q7 0 10 -7q12 -27 37 -44t58 -17q37 0 61 19t24 49q0 29 -22.5 47.5t-61.5 18.5h-19q-11 0 -11 11v33q0 10 11 10h19q35 0 55 16t20 42t-20.5 41t-53.5 15q-29 0 -50 -13t-31 -37q-4 -9 -14 -7l-39 9
q-10 3 -7 13q14 43 53.5 69t90.5 26q62 0 100.5 -29.5t38.5 -77.5q0 -30 -17 -55t-47 -38q35 -12 55 -37.5t20 -62.5q0 -54 -44.5 -88t-107.5 -34q-58 0 -98.5 28.5z" />
    <glyph glyph-name="four.dnom" horiz-adv-x="398" 
d="M247 0q-10 0 -10 10v73h-198q-9 0 -9 9v11q0 7 4 12l213 281q5 6 12 6h36q9 0 9 -9v-256h49q10 0 10 -9v-36q0 -4 -3 -6.5t-7 -2.5h-49v-73q0 -10 -9 -10h-48zM109 137h128v169z" />
    </font>
</defs>
</svg>
